{"glyphs":{"0":{"ha":1061,"x_min":86,"x_max":1061,"o":"m 1061 -56 q 1042 -101 1061 -75 q 1004 -128 1022 -126 q 878 0 957 -90 q 754 138 778 113 q 1021 7 924 110 q 1061 -56 1061 -35 m 956 688 q 882 660 935 663 q 800 663 922 663 q 456 624 706 663 q 258 300 374 450 q 536 339 351 311 q 501 540 536 464 q 618 499 590 540 q 594 394 593 435 l 596 347 q 703 369 628 350 q 811 388 771 388 q 913 339 881 388 q 768 289 890 300 q 596 282 682 285 q 608 90 597 219 q 618 -107 618 -40 q 593 -201 618 -158 q 522 -265 567 -251 q 426 -186 483 -247 q 333 -100 360 -118 l 493 -125 l 526 -101 q 550 68 550 -39 q 547 172 550 101 q 543 278 543 242 q 411 263 538 276 q 283 235 329 253 q 178 188 250 215 q 111 275 128 210 l 114 282 q 189 296 139 285 q 386 615 238 313 q 265 590 353 611 q 146 571 188 571 q 115 589 135 571 q 86 621 94 607 l 414 664 q 465 899 465 772 q 458 985 465 942 q 618 900 588 963 q 550 788 597 857 q 481 678 499 711 q 660 719 531 683 q 839 751 775 751 q 956 688 926 751 m 300 158 q 268 -31 300 58 q 143 -149 224 -149 q 112 -131 124 -149 q 100 -96 100 -114 q 167 -22 100 -87 q 247 61 240 51 q 300 158 279 103 z "},"1":{"ha":1147,"x_min":0,"x_max":1147,"o":"m 711 775 q 676 708 711 708 q 617 751 663 708 q 557 808 586 781 q 464 878 531 831 l 501 878 q 711 775 711 879 m 1147 571 q 892 536 1124 544 q 601 529 746 532 q 644 479 644 517 q 604 383 644 450 q 769 368 688 376 q 890 275 869 347 q 781 -6 858 151 q 603 -214 678 -212 q 549 -120 583 -194 q 486 -15 515 -46 q 643 -78 536 -39 q 731 78 681 -60 q 778 261 778 207 q 582 347 778 332 q 332 40 440 147 q 0 -144 156 -133 q 347 138 174 -50 q 550 515 550 357 q 339 474 504 510 q 128 446 210 446 q 21 499 47 446 q 600 568 215 518 q 800 615 635 574 q 1003 646 924 646 q 1083 624 1042 646 q 1147 571 1125 603 z "},"2":{"ha":1201,"x_min":-54,"x_max":1201,"o":"m 1201 317 q 1133 121 1160 175 q 990 -21 1079 11 q 915 138 967 75 q 1007 107 981 107 q 1031 115 1007 107 q 1067 208 1053 150 q 1089 307 1078 258 l 1081 329 l 1065 339 l 814 324 q 825 -135 825 50 q 808 -219 825 -168 q 769 -297 790 -275 q 743 -140 743 -247 q 753 86 743 -62 q 765 313 764 240 l 632 293 q 569 39 632 158 q 389 -149 503 -87 l 367 -139 q 519 44 464 -65 q 579 275 575 154 q 488 233 536 264 q 410 190 433 200 q 390 231 390 201 q 408 475 390 254 l 458 474 q 583 489 458 474 q 579 642 583 590 q 454 622 513 638 l 424 664 l 576 678 q 514 878 576 825 q 579 874 563 876 q 635 847 624 867 q 629 764 629 810 l 631 692 l 758 713 q 756 865 757 789 q 704 1007 749 947 q 785 983 743 1004 q 843 932 828 963 q 813 833 824 892 q 799 731 806 782 q 889 753 825 733 q 978 772 946 772 q 1044 753 1008 772 q 1085 708 1079 735 q 1027 640 1072 682 q 968 571 982 597 l 990 536 q 807 508 929 528 q 817 360 810 497 q 939 379 843 363 q 1064 392 1015 392 q 1201 317 1157 392 m 403 882 q 349 738 403 833 q 261 603 308 663 q 293 550 293 576 l 293 43 q 242 -169 293 -169 q 206 -122 218 -169 q 197 -56 197 -90 q 206 18 197 -26 q 218 92 217 79 q 242 571 236 240 q 107 433 142 468 q -36 307 31 358 l -54 317 q 182 601 115 501 q 307 943 297 775 q 401 882 401 943 l 403 882 m 983 699 q 974 708 983 703 q 960 713 964 714 l 807 692 l 807 540 l 915 561 q 936 615 921 579 q 983 699 983 692 m 763 526 q 758 674 763 600 l 631 653 l 631 499 q 697 517 649 507 q 763 526 746 528 m 765 351 l 765 499 l 631 475 l 631 329 q 765 351 675 333 m 583 458 l 456 442 q 449 414 449 432 q 455 349 449 392 q 461 285 461 306 l 582 313 l 583 458 z "},"3":{"ha":1179,"x_min":-33,"x_max":1179,"o":"m 1179 -181 q 940 -203 1032 -203 q 689 -11 833 -203 q 497 275 593 132 q 328 -39 435 83 q 19 -192 194 -192 q -33 -185 19 -192 q 289 1 150 -157 q 442 342 424 154 q 310 314 408 338 q 178 296 228 296 q 94 329 131 296 q 268 368 154 356 q 449 392 418 385 q 463 592 463 556 q 397 578 457 592 q 332 568 358 568 q 231 615 275 568 q 460 653 339 622 q 410 985 460 883 q 547 932 506 964 q 533 667 540 760 q 625 690 561 669 q 717 708 683 708 q 763 694 733 708 q 800 667 793 681 q 674 624 776 644 q 533 599 603 611 q 519 406 529 535 q 639 432 556 408 q 758 454 714 454 q 885 413 844 454 q 710 364 868 382 q 504 347 607 356 q 779 3 647 111 q 1179 -181 932 -125 z "},"4":{"ha":1176,"x_min":-31,"x_max":1176,"o":"m 1013 836 q 864 785 1001 813 q 693 761 744 761 q 617 781 635 761 l 617 790 q 867 860 744 813 q 932 878 915 878 q 1013 836 1001 878 m 1043 621 q 999 572 1043 614 q 943 518 949 526 q 969 483 969 501 q 967 472 969 483 q 681 433 788 456 q 646 401 681 403 q 606 515 626 458 q 553 624 582 581 q 568 625 568 625 q 638 603 582 625 q 801 649 671 608 q 939 688 924 688 q 1003 665 963 688 q 1043 621 1043 642 m 438 775 q 403 740 439 740 q 378 751 394 740 q 338 785 361 761 q 215 878 285 833 q 438 775 438 874 l 438 775 m 1176 307 q 1133 124 1175 300 q 1101 -62 1108 17 q 1083 -119 1099 -93 q 1008 -192 1051 -178 q 974 -121 990 -171 q 944 -44 951 -58 q 778 -56 878 -44 q 613 -72 615 -72 l 615 -103 q 597 -150 617 -129 l 571 -157 l 554 -149 q 524 169 547 -43 q 481 339 508 225 l 489 347 q 564 310 506 346 q 801 358 621 317 q 1038 392 953 392 q 1116 364 1069 392 q 1176 307 1163 336 m 460 258 l 453 239 l 438 231 q 383 269 415 236 q 333 317 344 310 l 333 -128 q 293 -189 333 -176 q 246 -103 246 -162 q 256 -57 246 -85 q 268 -11 267 -21 q 281 181 281 56 l 281 310 q -26 21 99 107 l -31 31 q 322 529 247 308 q 189 479 303 524 q 58 446 103 446 q -17 508 25 446 q 201 558 47 513 q 374 603 351 603 q 451 553 426 603 q 378 461 435 525 q 310 365 329 404 l 332 339 q 411 317 371 338 q 458 258 458 292 l 460 258 m 917 599 q 899 615 917 615 q 772 601 847 615 q 647 579 710 590 l 669 475 q 769 494 703 478 q 869 511 835 510 q 917 599 917 576 m 1039 317 q 1033 333 1039 317 q 1021 339 1029 336 q 918 326 983 339 q 817 310 844 313 q 839 275 839 292 q 829 226 839 257 q 817 179 818 192 q 864 192 821 179 q 913 200 893 200 q 967 165 956 200 q 899 139 960 144 q 817 138 857 139 l 817 -4 q 954 10 908 10 q 988 -24 975 10 q 1014 -57 1001 -57 l 1018 -56 q 1039 317 1039 18 m 765 124 q 681 106 700 106 q 638 138 649 106 q 765 165 700 149 l 765 296 q 571 275 764 296 q 606 -32 594 175 q 764 -11 658 -24 l 765 124 z "},"5":{"ha":1201,"x_min":-54,"x_max":1201,"o":"m 876 828 q 825 810 875 814 q 758 810 792 810 q 315 751 607 806 q 210 649 235 668 q 76 596 143 596 q 357 985 249 700 q 469 946 442 985 q 413 868 451 913 q 350 793 361 807 q 571 846 461 819 q 793 876 704 876 q 876 828 857 876 m 800 624 q 782 567 800 610 q 743 440 764 524 q 706 315 721 351 q 660 278 692 278 q 638 360 638 278 q 521 354 632 360 q 410 339 443 351 q 375 317 399 329 l 360 333 q 339 415 351 342 q 320 509 322 501 q 299 569 318 517 q 281 621 281 618 q 308 651 281 649 q 357 650 294 650 q 531 679 417 650 q 701 708 644 708 q 759 674 718 708 q 800 624 800 639 m 1201 -201 q 1054 -235 1185 -204 q 906 -256 965 -256 q 793 -217 853 -256 q 692 -134 757 -193 q 596 -56 626 -75 q 397 -174 510 -129 q 171 -221 281 -221 q 111 -208 171 -221 q 539 -15 388 -151 q 336 106 464 57 q 164 -46 235 -3 q -54 -107 65 -107 q 139 0 81 -40 q 293 158 233 67 q 368 285 314 203 q 444 267 415 285 q 403 190 436 229 q 538 221 436 194 q 674 243 621 243 q 758 204 726 243 q 694 90 739 157 q 625 -19 636 1 q 1201 -201 854 -133 m 701 626 q 657 661 701 661 q 368 617 606 661 q 374 558 368 597 q 379 499 379 518 q 533 531 472 506 q 558 540 556 540 q 625 508 625 540 q 519 476 625 490 q 389 464 454 471 l 403 364 q 649 399 522 378 q 675 464 658 408 q 701 626 701 561 m 642 190 q 379 158 554 181 l 357 131 q 561 21 476 79 q 609 106 576 40 q 642 190 642 171 z "},"6":{"ha":1190,"x_min":-44,"x_max":1190,"o":"m 1190 -167 q 917 -232 1001 -232 q 676 -135 804 -232 q 474 38 575 -49 q 235 -108 340 -71 q -44 -149 129 -146 q 414 81 243 -86 q 103 222 289 168 q 167 243 128 243 q 438 119 218 243 q 476 275 471 178 l 353 258 l 322 228 q 182 603 278 354 q 224 617 204 617 q 251 610 236 617 q 272 603 267 603 l 497 626 l 500 685 q 485 801 501 696 q 318 768 429 789 l 265 815 q 483 875 315 824 q 701 918 619 918 q 831 878 800 918 q 536 808 810 829 l 579 772 q 557 646 568 731 q 685 681 596 650 q 811 708 765 708 q 938 624 878 708 q 843 436 907 549 q 740 254 757 285 l 728 249 l 706 254 l 692 279 l 694 300 l 547 289 q 497 88 547 168 q 825 -87 650 -28 q 1190 -167 976 -140 m 800 621 q 776 633 800 633 q 561 603 674 633 l 561 499 q 601 509 574 500 q 642 518 628 518 q 708 499 693 518 q 644 465 708 478 q 561 451 603 458 l 550 324 l 708 336 q 763 479 736 408 q 800 621 800 581 m 496 544 q 493 592 496 561 l 283 571 q 346 293 308 497 l 485 313 q 490 442 490 367 q 440 434 474 442 q 389 426 406 426 q 357 463 378 439 q 490 486 411 467 q 496 544 496 506 z "},"7":{"ha":1181,"x_min":-35,"x_max":1181,"o":"m 907 751 l 906 751 q 596 571 901 718 q 768 751 714 664 q 782 788 775 769 q 800 815 793 815 q 857 790 818 815 q 907 751 890 769 m 1181 -96 q 1018 -168 1147 -139 q 832 -192 914 -192 q 610 -92 674 -192 q 557 140 563 -18 q 547 399 553 269 q 399 375 497 394 q 439 347 426 358 q 464 307 461 328 q 272 13 436 183 q -18 -167 100 -168 l -35 -167 q 233 56 172 -11 q 368 365 363 197 q 278 350 340 364 q 189 339 221 339 q 68 382 138 339 q 494 446 211 397 l 494 815 q 440 960 494 911 q 589 900 589 960 q 569 676 589 821 q 546 454 549 524 q 718 483 583 458 q 890 504 824 504 q 971 463 938 504 q 582 406 944 440 l 653 339 q 621 10 621 67 q 706 -78 621 -43 q 835 -107 774 -107 q 1064 -35 1006 -107 q 1117 200 1113 26 q 1146 51 1121 144 q 1181 -96 1175 -56 m 378 592 q 350 529 378 529 q 304 581 335 529 q 265 647 285 614 q 219 708 250 671 q 317 667 257 707 q 378 592 378 626 z "},"8":{"ha":918,"x_min":11,"x_max":918,"o":"m 918 801 q 908 763 917 793 q 899 731 899 733 l 899 169 q 907 61 899 133 q 915 -47 915 -11 q 893 -150 915 -99 q 826 -229 868 -207 q 783 -136 810 -207 q 714 -44 764 -81 q 107 -75 465 -44 q 64 -192 108 -167 q 22 -32 22 -149 q 33 31 22 -11 q 43 94 43 72 l 43 624 q 11 801 43 700 q 66 797 31 803 q 117 790 101 790 q 438 836 225 790 q 761 882 651 882 q 849 858 800 882 q 918 801 899 833 m 824 31 l 824 508 q 803 819 824 613 l 722 821 q 414 794 593 825 q 110 740 263 768 q 107 -32 119 296 q 392 1 163 -28 q 676 24 567 24 q 785 -28 756 24 l 771 -37 l 736 -39 q 785 -56 785 -56 q 824 31 824 -56 m 692 279 q 668 243 692 243 q 650 256 663 243 q 550 339 619 285 q 624 332 596 336 q 686 307 678 324 q 692 279 692 297 m 764 161 q 690 138 750 138 q 375 122 469 138 q 310 106 361 119 q 243 94 268 94 q 160 138 197 94 q 401 169 286 146 l 401 375 l 296 351 q 250 392 285 350 q 401 424 338 406 q 392 579 401 507 q 334 575 372 579 q 275 571 296 571 q 232 599 257 571 q 407 646 276 606 q 581 681 518 681 q 665 639 632 681 q 569 607 657 624 q 458 586 514 597 q 474 542 469 568 q 474 490 476 522 q 471 442 471 447 q 519 453 488 443 q 567 463 550 463 q 633 426 618 463 q 554 397 615 410 q 465 382 510 389 l 465 176 q 576 193 521 185 q 686 204 644 204 q 731 192 707 204 q 764 161 756 179 z "},"9":{"ha":1172,"x_min":-26,"x_max":1172,"o":"m 939 772 q 742 714 921 743 q 517 688 592 689 q 326 529 426 576 l 315 540 q 547 939 547 726 q 664 878 600 936 q 608 806 649 853 q 550 731 567 760 q 711 771 596 735 q 871 801 814 801 q 939 772 917 801 m 264 715 q 243 657 265 657 q 100 804 210 657 l 100 815 q 200 789 147 815 q 263 715 263 758 l 264 715 m 1172 303 l 1169 296 q 1063 292 1128 289 q 956 297 972 297 l 872 296 q 849 69 858 146 q 974 53 936 69 q 1044 -44 1028 29 l 1033 -50 q 843 0 971 -29 q 699 -290 807 -240 q 636 -210 682 -281 q 568 -117 585 -133 l 575 -117 q 633 -136 578 -117 q 701 -160 694 -157 q 771 18 753 -125 q 586 36 694 36 q 294 -44 347 36 q 269 38 269 -36 l 274 53 l 283 61 l 310 60 l 322 63 q 400 254 374 125 q 338 240 386 251 q 274 231 299 231 q 210 264 232 231 q 417 289 240 264 q 460 472 460 432 q 440 536 460 490 q 481 539 458 540 q 519 536 517 536 q 655 564 567 536 q 789 592 743 592 q 859 570 814 592 q 918 529 904 549 q 890 442 903 485 q 874 347 878 400 q 1021 369 988 369 q 1172 303 1140 369 m 138 454 q 125 419 138 436 q 96 401 113 401 q 81 411 89 401 q 33 471 65 432 q -26 529 22 483 l -26 540 q 136 454 136 540 l 138 454 m 200 347 q 151 190 200 336 q 94 3 100 35 q 63 -137 85 -60 q 47 -151 57 -142 q 1 -93 28 -142 q -26 -21 -26 -44 q -1 17 -26 -11 q 33 54 17 35 q 124 208 76 111 q 200 369 161 289 l 200 347 m 807 443 q 774 550 807 550 q 693 535 761 550 q 517 508 625 519 q 496 408 514 472 q 474 307 476 340 q 806 342 676 322 q 807 392 806 357 q 807 443 807 425 m 801 296 q 460 264 688 288 q 382 63 424 156 q 778 74 500 74 q 800 296 788 114 l 801 296 m 667 406 q 646 364 667 364 q 603 408 619 364 q 589 475 592 440 q 637 449 607 475 q 667 406 667 422 m 654 154 q 615 106 654 106 q 568 222 581 106 q 617 194 582 222 q 653 154 651 167 l 654 154 z "},"ˈ":{"ha":694,"x_min":88,"x_max":608,"o":"m 88 0 l 88 1111 l 608 1111 l 608 0 l 88 0 m 174 88 l 521 88 l 521 1025 l 174 1025 l 174 88 z "}," ":{"ha":694,"x_min":0,"x_max":0,"o":""},"ˇ":{"ha":0,"x_min":0,"x_max":0,"o":""},"ı":{"ha":0,"x_min":0,"x_max":0,"o":""},"!":{"ha":1183,"x_min":-29,"x_max":1183,"o":"m 904 790 q 869 760 904 781 q 771 676 854 751 q 674 615 703 615 q 782 801 749 707 q 803 836 794 836 q 861 822 824 836 q 904 790 904 806 m 846 900 q 714 867 835 889 q 563 838 639 851 q 449 803 561 838 q 335 783 378 781 l 308 785 q 632 932 589 890 q 660 961 646 947 q 688 985 681 985 q 769 953 714 985 q 846 900 825 922 m 613 688 q 601 651 613 668 q 571 633 589 633 q 556 654 563 633 q 497 772 539 694 q 567 739 521 769 q 613 688 613 708 m 1142 518 q 1015 487 1100 506 q 888 454 929 468 q 961 571 943 517 q 519 526 822 571 q 399 501 503 524 q 275 486 324 486 q 213 501 247 486 q 185 383 210 444 q 111 296 153 307 q 75 369 75 311 q 100 411 75 382 q 147 476 133 450 q 172 582 172 524 q 169 611 172 596 q 213 529 182 599 q 267 518 235 518 q 614 571 385 518 q 961 624 843 624 q 1142 518 1076 624 m 424 633 q 409 606 424 621 q 381 592 394 592 q 368 601 375 592 q 324 671 336 654 q 267 731 299 703 q 360 699 304 728 q 424 633 424 667 m 1183 -208 q 924 -257 1099 -257 q 807 -219 860 -257 q 722 -136 776 -197 q 635 -51 668 -75 q 213 -196 417 -196 q 181 -181 213 -196 q 593 -15 429 -160 q 389 106 525 58 q 196 -87 328 24 q -29 -214 40 -218 q 426 307 308 11 q 360 300 413 307 q 293 296 318 296 q 253 303 293 296 l 222 329 q 331 336 264 329 q 438 344 414 343 q 460 451 460 400 q 456 499 460 475 q 571 454 546 489 q 532 369 569 439 q 674 392 576 371 q 814 413 764 413 q 908 369 888 413 q 726 342 882 357 q 518 317 551 324 l 444 179 q 576 214 483 183 q 708 243 661 243 q 768 222 731 243 q 825 190 797 207 l 832 174 l 825 158 q 740 82 786 147 q 676 -19 708 32 q 913 -160 801 -121 q 1183 -208 1010 -194 m 688 190 q 508 154 572 154 q 438 169 475 154 q 403 115 432 157 q 515 78 450 113 q 624 21 617 22 q 688 190 671 74 z "},"\"":{"ha":1274,"x_min":76,"x_max":1274,"o":"m 768 804 q 754 760 768 779 q 715 740 740 740 q 624 822 706 740 q 524 921 574 871 q 713 883 657 921 q 768 804 768 844 m 1274 -101 l 1272 -101 l 1257 -110 q 1086 -95 1200 -110 q 915 -81 972 -81 q 553 -101 721 -81 q 374 -142 508 -107 q 194 -169 263 -169 q 76 -96 147 -169 q 628 -44 279 -96 l 628 211 q 453 189 467 189 q 349 222 397 189 q 489 244 406 226 q 628 275 625 275 q 610 511 628 397 q 411 504 415 504 q 310 540 351 504 q 608 613 385 549 q 900 667 806 667 q 1018 624 992 667 q 851 567 994 599 q 661 526 757 546 q 718 464 704 500 q 697 285 697 356 q 767 303 715 288 q 838 317 810 317 q 933 264 892 317 q 694 215 853 249 l 690 -36 q 888 -8 714 -33 q 1086 10 1007 10 q 1196 -21 1139 10 q 1274 -101 1258 -54 z "},"#":{"ha":1140,"x_min":-14,"x_max":1140,"o":"m 1140 176 q 1104 115 1140 115 q 1086 128 1097 115 q 990 240 1054 167 q 872 347 954 276 q 1043 307 964 347 q 1140 176 1140 258 m 904 571 q 836 238 876 471 q 763 -92 800 21 q 712 -158 750 -131 q 629 -192 674 -185 q 540 -91 593 -164 q 451 10 488 -18 q 526 -28 489 -10 q 599 -56 583 -56 q 736 207 683 -56 q 781 546 757 317 l 769 564 q 746 571 746 571 q 563 557 650 571 q 482 249 557 421 q 288 -54 403 64 q 15 -192 156 -192 l -14 -189 q 333 101 197 -110 q 486 533 456 293 q 393 515 465 531 q 300 504 336 504 q 218 561 242 504 q 500 592 306 561 q 524 822 524 763 q 504 883 524 846 q 471 943 488 914 q 629 867 589 943 q 574 603 607 781 q 669 628 601 606 q 767 646 731 646 q 844 621 797 646 q 904 571 890 596 m 250 357 q 204 208 250 282 q 81 126 153 126 q 50 190 50 126 q 96 253 50 207 q 179 342 160 317 q 225 451 225 401 l 239 451 q 250 357 250 371 z "},"$":{"ha":1150,"x_min":0,"x_max":1150,"o":"m 1150 10 q 915 -64 1104 -64 q 674 17 742 -64 q 617 226 617 82 q 628 415 617 281 q 640 625 640 550 q 592 921 640 797 q 679 889 640 915 q 728 815 728 858 q 686 392 728 647 q 827 511 750 424 q 914 603 904 599 q 1006 536 982 589 q 858 442 993 519 q 686 339 707 354 q 689 271 689 308 q 688 224 689 254 q 688 181 688 194 q 719 57 688 92 q 883 10 761 10 q 1044 96 1000 10 q 1093 285 1064 133 q 1115 146 1096 228 q 1150 10 1133 78 m 457 706 q 444 285 457 533 q 422 -136 433 75 l 401 -144 q 363 -54 363 -121 q 381 138 363 -8 q 242 51 326 111 q 107 -39 149 -15 q 0 54 1 3 q 194 115 35 67 q 383 188 314 151 q 388 331 388 258 q 383 446 388 388 q 179 382 196 382 q 103 426 119 382 l 117 446 q 250 457 243 457 q 381 486 326 467 q 372 646 376 567 q 317 793 360 740 q 457 706 457 793 z "},"%":{"ha":1325,"x_min":25,"x_max":1325,"o":"m 1325 142 q 1209 137 1286 142 q 1093 132 1132 132 q 997 138 1043 132 q 815 324 924 189 q 660 540 721 439 q 540 526 621 535 q 336 226 483 386 q 43 44 165 40 l 25 46 q 289 236 167 111 q 456 508 424 374 q 260 464 390 493 q 188 515 203 482 q 471 557 294 522 q 497 663 497 633 q 492 699 497 663 q 385 654 461 690 l 378 657 q 361 724 361 689 l 365 744 l 426 751 q 519 869 511 858 q 569 1007 567 940 q 692 963 671 1007 q 657 941 682 951 q 624 921 632 931 l 479 751 q 793 790 583 767 q 721 878 771 821 q 843 846 783 878 q 926 757 908 811 l 915 725 l 892 708 q 836 751 861 724 q 510 708 714 751 q 586 633 586 667 q 560 571 586 618 q 735 601 601 575 q 911 624 844 624 q 1032 556 994 624 q 992 544 1032 547 q 940 544 968 543 l 768 547 l 690 546 q 968 283 817 374 q 1325 142 1083 215 m 674 369 q 546 222 664 317 q 375 106 449 143 l 364 115 q 585 413 526 233 q 636 400 608 410 q 672 369 671 386 l 674 369 m 754 200 l 753 200 q 599 61 750 167 q 407 -44 447 -44 q 383 -39 407 -44 q 556 78 471 -21 q 690 243 622 160 q 754 200 729 235 m 839 54 q 285 -318 529 -325 q 732 101 636 -186 q 839 54 776 96 z "},"&":{"ha":1301,"x_min":49,"x_max":1301,"o":"m 1301 -47 q 1126 -60 1214 -53 q 950 -67 1021 -67 q 728 136 931 -67 q 482 382 492 374 l 482 -75 q 669 31 542 -49 l 669 18 q 524 -135 635 -14 q 367 -276 435 -232 q 296 -162 319 -233 q 351 -133 314 -147 q 410 -107 396 -115 l 410 360 q 176 317 228 317 q 49 357 97 317 q 410 406 169 371 l 410 751 q 346 885 410 824 l 360 900 q 504 847 457 900 q 482 761 482 768 l 482 476 q 769 889 664 639 l 894 815 q 706 635 890 793 q 482 451 539 490 l 482 419 q 724 465 538 425 q 967 499 872 499 q 1119 446 1085 499 q 535 383 925 424 q 878 101 793 156 q 1301 -39 1054 -10 l 1301 -47 z "},"'":{"ha":1333,"x_min":18,"x_max":1333,"o":"m 1333 61 q 1251 -47 1333 -18 q 1101 -65 1200 -65 q 901 -8 957 -65 q 857 139 857 38 q 863 244 857 169 q 868 360 868 318 q 850 479 868 365 q 721 454 807 475 l 721 426 q 704 417 717 417 l 700 419 q 646 576 675 463 q 583 731 619 681 q 613 736 597 736 q 642 732 622 736 q 675 728 663 728 q 834 763 731 728 q 992 797 938 797 q 1060 769 1014 797 q 1122 719 1106 740 q 1064 646 1122 718 q 996 544 1006 574 l 1017 518 q 960 488 1004 496 q 890 479 957 486 q 929 392 929 457 q 919 265 929 350 q 910 138 910 179 q 936 36 910 63 q 1038 10 963 10 q 1236 67 1186 10 q 1308 264 1271 106 q 1322 164 1310 236 q 1333 61 1333 99 m 493 781 q 475 733 493 733 q 460 739 467 733 q 367 819 428 765 q 289 878 354 831 q 383 871 331 878 q 467 847 453 863 q 493 781 493 821 m 785 360 q 761 300 782 342 q 443 -19 646 63 q 626 167 554 57 q 714 410 703 283 q 785 360 740 396 m 553 264 q 521 211 553 226 q 451 263 493 225 q 383 317 406 303 q 406 193 406 203 q 331 -192 406 -153 q 310 -62 310 -167 q 321 119 310 10 q 342 303 332 211 q 35 -21 222 96 l 18 -19 q 372 508 257 203 q 233 453 346 503 q 121 406 128 406 q 35 475 82 406 q 397 599 263 475 q 460 581 425 599 q 510 540 494 563 q 478 511 503 528 q 447 482 454 494 l 363 339 q 553 264 553 339 m 989 706 l 971 719 q 825 701 957 719 q 686 692 808 699 q 725 493 696 625 q 875 519 776 497 q 943 540 897 528 l 989 706 z "},"(":{"ha":1239,"x_min":-51,"x_max":1239,"o":"m 1239 38 q 1018 3 1082 3 q 790 169 960 3 q 579 394 761 200 l 457 382 q 239 99 394 254 q -51 -75 60 -82 q 393 365 178 21 q 272 344 364 363 q 150 329 196 329 q 100 343 150 329 l 74 378 q 242 390 204 386 q 410 413 336 399 q 446 540 438 478 q 369 526 422 539 q 294 515 322 515 q 249 526 294 515 l 222 550 q 335 568 263 560 q 447 583 414 576 q 457 715 457 635 q 392 701 442 714 q 325 692 351 692 q 282 701 325 692 l 254 738 q 457 757 322 740 l 457 801 q 433 974 457 900 q 510 963 486 968 q 571 921 554 950 q 535 775 557 872 q 636 801 561 778 q 739 822 700 822 q 847 775 831 822 l 838 764 q 683 744 775 753 q 529 731 607 738 l 517 596 q 622 621 544 600 q 729 639 689 639 q 771 628 729 639 l 794 606 l 782 588 q 510 550 690 576 q 479 424 500 482 q 692 468 532 429 q 904 501 825 501 q 994 454 958 501 l 979 439 q 613 401 857 429 q 1239 38 942 75 m 757 -6 q 688 -297 757 -297 q 663 -215 679 -287 q 614 -160 649 -160 q 393 -181 568 -160 l 394 -219 q 350 -286 394 -274 q 324 -199 324 -262 q 321 -7 324 -215 q 328 182 319 110 q 369 177 342 182 q 413 172 397 172 q 549 192 458 172 q 686 211 639 211 q 754 122 742 211 q 757 -6 757 106 m 682 111 q 643 158 682 158 q 517 149 593 158 q 392 133 399 133 l 392 21 q 490 25 449 21 q 529 35 500 26 q 567 42 553 42 q 617 7 617 42 q 517 -17 617 -10 q 392 -21 454 -19 l 392 -139 q 507 -129 414 -137 q 622 -122 578 -122 q 676 -125 650 -122 q 682 111 682 -47 z "},")":{"ha":1156,"x_min":-19,"x_max":1156,"o":"m 1156 -142 q 896 -156 875 -156 q 707 -69 800 -156 q 557 121 636 -4 q 442 307 500 214 q 289 17 388 135 q 8 -128 163 -131 l -19 -128 q 276 92 193 -26 q 386 446 360 211 q 242 406 314 426 q 96 383 157 383 q 29 429 51 383 q 207 468 89 456 q 392 493 358 485 q 383 708 389 642 q 342 921 372 826 q 435 906 389 921 q 501 847 494 885 q 472 681 479 776 q 465 511 469 654 q 635 554 510 518 q 806 585 742 585 q 903 529 867 585 q 700 479 889 499 q 460 454 581 467 l 454 357 q 744 26 594 133 q 1156 -135 903 -87 l 1156 -142 z "},"*":{"ha":1324,"x_min":26,"x_max":1324,"o":"m 1071 740 q 1035 676 1060 715 q 996 615 1006 632 q 925 399 978 581 q 850 211 879 239 l 831 219 q 790 285 818 242 q 479 243 717 285 q 449 194 481 194 q 431 232 435 208 q 424 278 426 256 l 357 606 q 321 679 350 635 q 279 751 288 728 q 348 741 303 751 q 417 731 393 731 q 649 783 497 731 q 881 836 801 836 q 979 797 903 836 q 1071 740 1051 760 m 1324 42 q 1185 -4 1306 -4 q 1101 -1 1153 -4 q 1040 3 1050 3 q 435 -60 832 3 q 279 -89 357 -74 q 121 -107 185 -107 q 26 -44 83 -107 q 568 42 297 -1 q 1113 94 896 94 q 1324 42 1294 94 m 906 728 q 892 749 906 736 q 871 761 879 761 q 646 735 782 761 q 424 692 456 696 q 444 504 438 617 q 588 547 463 508 q 711 583 699 583 q 797 561 768 583 q 643 496 796 526 q 453 464 631 493 q 479 285 461 404 q 617 311 518 288 q 754 332 703 332 q 828 313 764 332 q 876 519 853 417 q 906 728 906 646 z "},"+":{"ha":1321,"x_min":29,"x_max":1321,"o":"m 1075 772 q 740 615 926 703 l 726 624 q 975 828 844 704 q 1011 857 986 840 q 1075 772 1074 803 m 1154 224 l 1146 214 q 982 196 1093 203 q 815 176 871 189 q 729 144 788 164 q 685 190 685 160 q 700 265 685 217 q 715 339 715 313 q 685 475 715 372 l 704 475 q 763 439 742 475 q 779 369 779 408 q 771 296 779 339 q 757 222 764 260 l 874 247 l 874 674 q 921 668 908 674 q 950 631 940 660 q 925 510 924 540 l 926 475 q 1076 528 1068 528 q 1117 513 1093 528 q 1147 482 1140 497 q 1043 450 1128 464 q 926 436 985 443 l 926 250 q 1064 272 1053 272 q 1119 259 1090 272 q 1154 224 1147 246 m 1321 -57 q 1183 -101 1251 -79 q 1043 -128 1096 -128 q 815 -36 960 -128 q 600 106 707 35 q 367 -132 499 -101 q 551 138 465 -56 q 389 243 499 179 l 435 244 q 503 221 464 246 q 564 179 533 200 q 586 264 579 217 q 540 329 574 286 q 494 399 507 372 q 536 615 510 471 q 453 592 479 592 q 410 624 435 592 q 568 692 438 631 q 653 633 610 676 q 588 525 640 606 q 533 413 543 460 q 599 340 536 408 q 646 265 646 289 q 633 206 646 242 q 613 147 624 176 q 953 -4 778 43 q 1321 -57 1094 -42 m 431 806 q 416 766 431 788 q 385 744 401 744 q 203 857 372 744 q 250 858 219 858 q 354 849 303 858 q 431 806 431 833 m 442 115 q 340 -10 413 88 q 231 -128 279 -92 q 194 -85 210 -114 q 178 -32 179 -57 l 251 18 q 267 210 267 92 q 265 328 267 249 q 263 446 263 407 q 100 399 125 399 q 29 446 54 399 l 219 486 q 256 515 235 489 q 293 540 276 540 q 342 533 315 540 q 378 508 378 524 q 356 457 378 497 q 325 401 329 413 q 304 46 304 338 q 374 79 332 56 q 442 115 425 108 z "},",":{"ha":1194,"x_min":-35,"x_max":1194,"o":"m 1119 518 q 1049 426 1103 488 q 982 332 1000 371 l 965 321 l 935 332 l 940 360 q 731 336 863 354 q 543 300 563 314 q 493 254 531 281 q 467 372 489 297 q 438 489 443 454 q 483 504 456 504 q 494 499 486 504 q 507 493 503 493 q 654 526 533 493 q 682 597 674 574 q 697 669 694 636 q 557 650 561 650 q 507 688 543 650 q 707 713 574 693 q 732 900 732 808 q 726 942 732 917 q 718 985 718 979 q 835 921 824 947 q 771 731 811 858 q 915 765 885 765 q 1000 724 974 765 q 886 694 982 706 q 758 681 760 681 q 700 540 732 604 q 854 579 735 546 q 1010 606 950 606 q 1074 578 1042 606 q 1119 518 1107 550 m 1194 60 q 1183 28 1194 47 q 1163 10 1172 10 q 1057 74 1139 10 q 950 158 1003 115 q 1068 140 1026 150 q 1172 93 1144 122 q 1194 60 1194 69 m 435 826 q 281 658 336 711 q 96 529 186 569 q 247 696 171 613 q 328 900 328 800 q 433 826 371 899 l 435 826 m 958 215 q 910 196 958 203 q 849 192 879 194 q 710 168 813 189 q 572 150 624 150 q 510 188 510 150 q 740 222 588 196 q 810 243 749 224 q 875 258 860 258 q 958 215 958 258 m 835 21 q 804 -21 835 -21 q 746 38 788 -21 q 696 115 721 76 q 833 21 833 75 l 835 21 m 1110 -128 q 889 -212 1110 -212 l 801 -212 q 661 -181 701 -212 q 578 -60 629 -157 q 528 74 547 -3 q 632 -93 589 -51 q 815 -160 700 -160 q 972 -103 972 -160 q 939 -8 972 -83 q 1024 -72 968 -40 q 1110 -128 1086 -107 m 451 33 q 438 -74 451 -22 q 382 -149 418 -149 q 351 -132 363 -149 q 339 -96 339 -115 q 388 -9 339 -83 q 443 94 436 65 q 450 33 450 68 l 451 33 m 382 526 q 310 410 358 479 q 233 296 249 321 q 265 147 265 244 l 265 -142 q 251 -184 265 -156 q 226 -212 238 -212 q 190 -195 207 -212 q 172 -160 172 -178 q 183 -75 172 -131 q 194 10 194 -19 l 194 250 q 86 160 140 204 q -35 85 21 110 q 171 308 99 207 q 299 583 258 433 q 381 526 371 567 l 382 526 m 1000 529 q 979 546 1000 546 q 857 533 974 546 q 813 388 844 485 q 928 399 888 399 q 961 392 939 399 q 1000 529 1000 532 m 781 508 l 661 489 l 665 364 l 775 382 l 781 508 m 624 357 l 607 475 l 507 463 l 532 339 l 624 357 z "},"-":{"ha":1092,"x_min":25,"x_max":1092,"o":"m 1092 508 q 1063 443 1088 485 q 1039 369 1042 408 q 1033 144 1036 257 q 997 -85 1028 1 q 860 -256 956 -200 q 782 -154 825 -225 q 710 -44 729 -68 q 856 -82 818 -82 q 971 340 968 -82 l 972 467 q 967 499 972 467 q 951 504 951 504 q 830 493 911 504 q 708 482 749 482 q 651 499 708 482 q 489 339 608 422 l 468 342 q 735 896 735 607 q 901 843 863 882 q 867 804 896 825 q 831 772 839 783 l 668 518 q 810 554 711 522 q 953 583 901 583 q 1028 558 981 583 q 1092 508 1075 532 m 775 222 q 761 188 774 206 q 732 169 749 169 q 696 208 721 169 q 665 260 681 233 q 604 339 642 294 q 757 265 717 331 q 774 222 774 240 l 775 222 m 481 469 q 454 410 476 454 q 438 347 438 372 q 442 250 438 326 q 447 128 447 174 q 385 -107 447 -47 q 356 -49 368 -87 q 332 14 339 -1 q 250 -1 299 4 q 167 -8 208 -4 q 132 -107 167 -100 l 122 -103 q 93 35 97 -47 q 94 178 94 15 q 25 446 94 338 l 35 458 l 126 458 q 250 719 250 607 q 244 757 250 735 q 236 793 236 789 q 374 751 351 793 q 183 475 358 710 q 279 511 203 479 q 363 540 347 540 q 425 513 382 540 q 479 469 464 488 l 481 469 m 385 442 q 364 464 382 464 q 251 447 319 464 q 142 424 165 426 l 154 243 q 211 269 169 247 q 271 289 246 289 q 317 271 317 289 q 247 232 317 258 q 161 200 204 217 l 161 31 q 231 42 185 31 q 301 54 278 54 q 363 31 311 54 q 385 239 383 96 q 383 442 383 100 l 385 442 z "},".":{"ha":1214,"x_min":-42,"x_max":1214,"o":"m 1214 -21 q 824 -149 1160 -149 q 584 -110 657 -149 q 489 19 511 -72 q 472 261 474 85 l 339 211 l 333 222 l 339 231 q 472 296 394 253 q 444 561 472 399 q 539 454 539 538 q 518 329 539 426 q 588 363 546 339 q 656 399 642 392 l 656 761 q 594 939 656 844 q 688 925 643 939 q 750 867 750 906 q 733 654 750 793 q 715 442 717 510 q 813 507 750 461 q 908 571 875 553 q 1000 511 976 558 q 935 296 981 431 q 849 106 878 131 q 799 169 822 124 q 761 243 761 242 l 814 222 q 875 329 857 238 q 890 464 883 397 l 882 482 l 863 489 q 786 450 831 481 q 715 401 750 426 l 719 272 q 676 69 725 110 q 644 185 644 90 q 650 285 644 222 q 656 360 656 347 q 518 285 618 346 q 524 106 521 126 q 578 -28 533 15 q 750 -79 632 -79 l 843 -79 q 1089 -8 1029 -79 q 1147 243 1142 54 q 1214 -21 1156 158 m 413 413 l 403 400 q 243 357 350 386 l 243 106 l 390 179 l 401 169 q 228 32 315 100 q 44 -90 124 -50 q -42 -21 -10 -74 q 188 85 10 -6 q 196 301 197 272 l 194 339 q 128 313 161 325 q 65 293 78 293 q 8 332 24 293 q 99 363 29 344 q 197 388 183 383 l 199 454 q 149 793 204 669 q 223 760 185 790 q 261 699 261 731 q 252 550 261 649 q 243 401 243 451 q 346 451 247 403 q 413 413 396 451 z "},"/":{"ha":1164,"x_min":-22,"x_max":1164,"o":"m 572 804 q 553 764 572 783 q 513 744 533 744 q 350 900 507 744 q 554 828 472 900 q 572 804 572 814 m 953 657 q 847 604 933 638 q 728 557 742 564 q 793 678 793 658 q 789 690 793 678 l 779 699 q 475 668 650 699 q 175 611 325 640 q 88 446 169 468 q 56 508 56 460 q 101 597 56 533 q 146 708 146 660 l 157 708 q 179 646 158 671 q 488 718 213 651 q 793 765 688 765 q 875 722 814 765 q 953 657 936 678 m 1164 -139 q 1010 -190 1126 -165 q 846 -214 904 -214 q 642 -147 761 -214 q 431 -6 564 -104 q 244 126 292 99 q 131 -35 211 60 q -12 -149 33 -150 l -22 -149 q 199 303 199 71 q 297 243 263 290 q 282 193 296 221 q 256 147 268 171 q 442 42 344 111 q 450 249 450 178 q 425 424 450 372 q 383 410 404 417 q 340 401 357 401 q 267 447 292 401 q 635 540 350 457 l 672 531 l 699 486 q 590 456 683 474 q 467 433 528 444 q 531 382 490 419 q 508 243 508 326 q 594 265 536 244 q 678 285 649 285 q 711 276 678 285 l 733 235 q 628 208 718 214 q 508 204 568 207 q 499 10 508 231 q 825 -94 643 -60 q 1164 -139 913 -111 z "},":":{"ha":1250,"x_min":-43,"x_max":1250,"o":"m 1250 426 l 1239 415 q 1076 396 1175 404 q 913 383 929 386 q 921 108 921 226 q 906 -68 921 -6 q 810 -208 881 -171 q 663 -44 724 -86 q 810 -56 790 -56 q 854 136 854 -28 q 843 375 854 314 l 564 329 q 528 341 546 326 q 494 369 510 356 q 832 413 601 376 q 738 557 832 503 q 839 561 788 561 q 942 744 872 622 l 938 756 l 926 761 q 796 724 907 757 q 663 699 714 699 q 597 706 633 699 l 568 731 q 763 781 606 738 q 958 815 882 815 q 1075 751 1049 815 l 1068 729 q 856 536 994 668 q 896 433 894 479 q 1010 458 933 436 q 1128 479 1086 479 q 1250 426 1215 479 m 536 0 q 508 -61 536 -47 q 443 21 490 -44 q 367 94 407 69 q 72 -96 254 -47 l 40 -85 q 329 133 215 -31 q 257 189 293 161 q 210 261 210 225 q 221 333 210 286 q 233 401 232 379 q 38 336 47 336 q -43 401 -6 336 l 240 446 q 274 694 274 564 q 251 878 274 793 q 367 826 331 879 q 304 454 367 708 l 442 486 l 442 583 l 457 585 q 536 529 488 585 q 403 150 525 436 q 536 0 536 36 m 442 464 l 294 424 q 274 346 285 385 q 263 267 263 300 q 361 188 263 229 q 442 464 425 292 z "},";":{"ha":1183,"x_min":-29,"x_max":1183,"o":"m 1183 446 q 1150 397 1174 425 q 1113 350 1119 361 q 1046 204 1086 310 q 1131 161 1107 204 q 960 124 1118 146 q 761 94 776 99 q 764 21 764 68 q 726 3 750 3 q 692 250 708 126 q 624 472 665 426 q 653 475 653 475 q 697 465 668 475 q 740 454 725 454 q 890 486 792 454 q 1036 518 988 518 q 1115 494 1068 518 q 1183 446 1163 471 m 649 515 l 644 504 q 535 485 603 490 q 424 475 429 476 l 424 317 q 526 297 492 313 q 592 222 575 275 l 583 201 l 564 194 q 493 243 536 208 q 424 296 446 283 l 426 -4 q 428 -53 426 -14 q 429 -117 429 -93 q 392 -276 429 -244 q 349 -137 349 -249 q 360 122 349 -43 q 374 382 372 307 q 215 147 288 231 q -10 -21 111 28 l -29 -11 q 328 446 176 79 q 199 407 294 440 q 69 378 115 378 q -26 442 8 378 q 374 508 149 454 l 374 540 q 368 626 374 572 q 361 713 361 690 l 164 667 l 139 688 q 338 753 239 690 q 488 900 426 811 q 624 836 586 883 l 635 836 q 517 778 613 811 q 381 728 397 736 l 428 713 l 444 678 q 424 518 424 576 q 557 564 549 564 q 649 515 619 564 m 1025 446 q 740 401 889 440 q 757 138 746 314 q 996 190 836 158 q 1025 446 1006 275 z "},"<":{"ha":1292,"x_min":58,"x_max":1292,"o":"m 1147 747 q 1000 707 1136 717 q 825 696 913 701 l 744 546 l 715 544 q 738 619 721 572 q 761 696 757 672 q 536 667 656 696 l 538 604 q 531 532 538 575 l 515 522 l 494 529 l 481 657 q 369 631 425 643 q 260 614 299 614 q 197 636 229 614 q 164 688 164 658 q 476 706 204 688 q 457 810 467 757 q 400 900 442 863 q 514 864 483 897 q 538 767 538 836 q 536 713 538 749 l 786 740 q 818 889 818 857 q 801 960 818 908 q 924 900 885 954 q 885 826 915 874 q 846 751 854 779 q 939 775 875 754 q 1032 793 999 793 q 1147 747 1114 793 m 1292 -75 q 932 -212 1292 -212 q 721 -117 772 -212 q 688 124 688 -53 l 544 61 l 511 69 q 688 165 563 83 q 700 357 700 351 q 669 499 700 410 q 738 482 706 497 q 786 433 775 464 q 749 204 749 256 q 965 475 883 310 q 1060 401 1031 454 q 744 154 1024 324 l 744 106 q 771 -83 744 -50 q 954 -128 804 -128 q 1175 -64 1115 -128 q 1239 158 1228 -6 q 1268 40 1243 124 q 1292 -75 1292 -35 m 533 433 q 385 222 497 356 l 421 203 q 428 190 428 190 l 428 -232 q 396 -297 428 -297 q 354 -181 354 -297 q 363 10 354 -117 q 371 200 371 138 q 72 -15 253 82 l 58 0 q 299 211 217 113 q 428 499 414 347 q 533 433 503 479 z "},"=":{"ha":1172,"x_min":0,"x_max":1172,"o":"m 1024 433 q 861 360 1024 360 q 671 399 719 360 q 615 579 615 443 l 486 529 l 464 540 q 619 621 567 586 l 626 878 q 592 963 628 917 q 668 950 646 958 q 707 889 707 933 q 697 778 707 851 q 686 667 686 704 q 872 857 821 744 q 960 772 938 815 q 828 686 947 753 q 675 599 751 642 l 675 546 q 706 450 674 471 q 801 433 728 433 q 944 463 917 433 q 978 603 968 488 q 1001 506 979 571 q 1024 433 1024 440 m 475 867 q 418 786 464 840 q 353 706 364 722 q 390 639 390 661 l 390 365 q 378 311 390 338 q 338 275 363 279 q 317 382 317 296 q 325 478 317 414 q 333 575 333 542 q 331 674 333 608 q 217 550 269 593 q 68 469 157 501 q 257 654 165 540 q 369 882 369 793 q 360 943 369 922 q 475 867 456 938 m 1172 200 l 1129 169 q 907 189 1044 189 q 622 179 811 189 q 631 -24 631 83 q 569 -318 631 -285 q 546 -103 546 -282 q 549 56 546 -42 q 553 169 553 154 q 340 132 500 164 q 126 106 208 106 q 0 158 75 106 q 557 207 317 179 q 528 371 557 317 q 601 353 568 371 q 644 296 644 331 q 622 207 644 289 q 839 239 674 211 q 1056 261 974 261 q 1172 200 1142 261 z "},">":{"ha":1289,"x_min":61,"x_max":1289,"o":"m 1128 561 q 1024 485 1096 528 q 915 413 944 439 q 968 564 956 506 l 960 578 l 951 579 q 813 554 897 579 q 674 518 704 524 q 614 446 657 489 q 540 382 571 403 l 525 382 q 658 599 592 460 q 733 838 733 754 q 714 943 733 885 q 867 878 832 922 q 836 824 861 851 q 763 690 799 781 q 697 553 721 589 q 851 604 724 558 q 986 646 969 646 q 1062 615 1011 646 q 1128 561 1113 585 m 1289 -128 q 1011 -144 1197 -133 q 881 19 974 -121 q 757 211 818 115 q 651 -33 728 58 q 418 -144 561 -144 q 647 42 582 -69 q 701 296 701 136 q 694 454 701 357 q 810 392 775 444 q 772 332 778 356 q 764 264 768 299 q 1289 -128 946 -35 m 515 74 q 483 21 517 35 q 422 99 471 29 q 358 190 367 181 q 82 -107 268 -31 l 61 -103 q 321 228 190 -29 q 138 454 254 329 l 156 454 q 346 307 178 454 q 382 433 364 371 q 403 561 403 507 q 392 577 403 567 q 375 588 381 588 q 262 558 339 588 q 146 529 185 529 q 81 561 100 529 q 251 610 126 568 q 418 646 360 646 q 478 632 446 646 q 515 592 515 615 q 463 432 515 556 q 388 264 425 347 q 514 74 514 147 l 515 74 z "},"?":{"ha":1247,"x_min":-54,"x_max":1247,"o":"m 1247 369 q 1001 336 1081 336 q 781 544 964 336 q 558 804 669 674 q -44 231 307 389 l -54 243 q 504 985 463 581 q 622 921 568 967 l 578 832 q 876 549 775 625 q 1247 369 1043 421 m 769 458 q 694 433 767 438 q 557 406 651 431 q 421 382 469 382 q 321 417 346 382 q 453 438 413 431 q 583 471 526 453 q 682 501 669 501 q 732 489 703 501 q 768 458 767 475 l 769 458 m 949 275 q 729 217 924 235 q 476 194 603 206 q 521 161 514 168 q 547 115 546 139 q 444 18 517 75 q 336 -75 364 -44 q 729 -32 468 -67 q 692 28 713 -11 q 656 90 664 76 q 885 -119 885 -50 q 853 -214 885 -189 q 799 -150 838 -206 q 747 -75 774 -112 q 350 -151 474 -93 q 258 -201 321 -171 q 221 -160 239 -194 q 194 -106 208 -133 l 208 -82 l 283 -75 q 382 50 353 8 q 453 190 432 122 q 228 140 236 140 q 176 158 204 140 q 135 196 149 176 q 406 228 271 213 q 676 274 563 249 q 753 296 676 274 q 831 310 803 310 q 949 275 936 310 z "},"@":{"ha":1138,"x_min":-12,"x_max":1138,"o":"m 1138 469 q 683 419 986 449 l 642 200 q 747 224 672 203 q 853 243 814 243 q 928 213 879 243 q 990 158 978 182 q 883 -8 954 85 q 914 -28 907 -22 q 933 -57 929 -42 q 756 -96 919 -79 q 550 -114 653 -106 q 540 -140 550 -129 q 515 -149 531 -150 q 460 24 496 -103 q 397 194 429 133 l 403 200 q 463 189 422 199 q 526 179 503 179 q 596 190 556 179 q 618 406 600 263 q 476 379 581 401 q 336 360 389 360 q 242 399 268 360 q 429 431 308 419 q 618 454 567 443 l 621 678 q 410 615 496 635 l 410 633 q 697 804 615 721 q 732 844 715 824 q 776 874 754 867 q 883 793 847 843 q 768 731 861 768 q 635 681 701 706 q 715 633 688 661 q 694 472 707 581 q 847 510 740 476 q 1000 540 943 540 q 1138 469 1094 540 m 315 740 q 263 699 315 699 q 213 731 242 699 q 172 782 193 756 q 114 832 142 813 q 296 775 247 832 q 315 740 315 753 m 167 454 q 156 419 167 436 q 129 401 146 401 q 54 469 106 401 q -12 561 21 515 q 94 528 29 561 q 167 454 167 490 m 276 313 q 189 64 233 189 q 103 -149 117 -143 q 52 -65 82 -128 q 22 24 22 -3 q 64 58 22 38 q 118 90 113 83 q 272 329 163 139 l 276 313 m 853 154 q 838 178 853 168 q 807 188 822 188 q 665 167 760 188 q 522 147 569 147 q 534 46 525 114 q 546 -57 543 -22 q 811 -15 614 -57 q 853 154 853 119 z "},"A":{"ha":1088,"x_min":7,"x_max":1088,"o":"m 904 765 q 751 724 892 746 q 581 706 629 706 q 486 751 492 706 q 657 778 593 761 q 740 801 658 778 q 819 819 799 819 q 871 804 843 819 q 904 765 904 786 m 1088 106 q 1056 42 1088 47 q 928 157 1008 78 q 801 275 844 242 q 978 232 890 272 q 1088 106 1088 182 m 1065 518 q 953 503 1040 503 q 714 479 865 503 q 735 247 732 385 q 735 13 735 260 q 644 -192 735 -139 q 567 -100 617 -168 q 486 -11 522 -37 q 633 -47 535 -22 l 649 -40 q 656 -28 656 -28 l 656 401 q 633 464 656 442 q 529 447 581 456 q 425 436 464 436 q 342 499 381 436 q 642 529 442 507 q 801 561 671 533 q 964 583 900 583 q 1026 564 993 583 q 1065 518 1065 544 m 390 793 q 311 685 379 757 q 247 571 250 621 q 338 344 338 421 q 300 296 338 311 q 206 363 267 314 q 110 429 144 411 q 261 406 185 419 l 274 419 q 243 506 271 435 q 218 583 218 569 q 250 674 218 603 q 292 768 271 721 l 288 779 l 278 785 q 96 731 218 763 q 97 499 96 657 q 99 268 99 346 q 94 -44 99 58 q 82 -142 90 -139 l 53 -149 q 11 -62 11 -124 q 22 8 11 -39 q 32 79 32 56 l 32 731 q 7 786 32 744 q 32 790 32 790 q 73 781 47 790 q 114 772 99 772 q 206 803 146 772 q 296 850 289 847 q 390 793 361 829 m 469 199 q 436 79 469 128 q 353 21 396 21 q 326 31 338 21 q 314 57 314 42 q 349 125 314 81 q 403 188 376 157 q 425 246 407 194 q 447 292 442 292 q 469 199 469 292 z "},"B":{"ha":1081,"x_min":8,"x_max":1081,"o":"m 535 858 q 479 804 535 817 q 428 874 463 828 q 353 943 408 896 q 532 867 494 936 q 535 858 535 863 m 985 731 q 878 681 967 714 q 757 633 774 642 l 817 751 l 799 765 q 464 732 665 757 q 131 692 146 693 q 117 588 131 632 q 51 524 96 524 q 25 529 51 524 l 8 560 q 56 660 8 578 q 103 808 103 743 l 117 808 q 135 731 121 760 q 458 769 335 750 q 646 814 497 775 q 833 843 761 843 q 915 800 860 843 q 985 731 971 757 m 1081 42 l 1068 29 q 806 0 900 0 q 633 131 788 0 q 443 289 451 283 q 532 -32 532 139 q 415 -256 532 -256 q 344 -182 381 -219 q 268 -117 303 -142 q 392 -146 353 -146 q 457 -42 457 -146 q 438 147 457 85 q 72 -85 213 -93 l 15 -82 q 419 200 232 -7 q 378 307 414 222 q 99 106 232 139 l 78 113 q 233 214 153 140 q 363 351 276 254 l 344 394 q 110 296 268 358 l 78 307 q 406 526 256 363 q 299 504 369 521 q 243 553 264 511 q 413 590 278 558 q 583 615 517 615 q 669 575 639 615 q 551 540 631 550 q 426 529 489 535 l 447 472 q 371 410 438 429 q 522 278 425 310 q 681 499 624 374 q 764 446 731 481 l 756 428 q 535 264 642 354 q 729 154 635 190 q 894 106 772 138 q 1081 42 1000 79 z "},"C":{"ha":1196,"x_min":-35,"x_max":1196,"o":"m 1196 486 q 1168 448 1190 471 q 1140 410 1146 425 q 1081 176 1114 344 q 1133 131 1121 176 q 1090 110 1122 113 q 1039 110 1100 110 q 819 78 972 110 q 781 7 819 22 l 771 15 q 758 232 763 56 q 744 419 753 397 q 700 518 726 450 q 748 508 717 518 q 796 499 779 499 q 922 530 839 499 q 1047 561 1004 561 q 1128 536 1079 561 q 1196 486 1176 511 m 668 550 q 626 451 653 518 q 554 124 590 288 q 372 -107 486 -107 q 300 74 351 -46 q 401 26 333 58 q 507 256 465 50 q 539 529 539 413 q 531 544 539 529 q 517 550 517 550 q 401 522 483 550 q 259 160 372 329 q -21 -107 146 -10 l -35 -103 q 206 169 110 11 q 326 508 307 336 q 151 464 179 464 q 68 518 89 464 q 342 557 140 518 q 360 775 360 710 q 342 900 360 796 q 482 850 438 893 q 414 583 458 761 q 542 603 535 603 q 610 588 569 603 q 668 550 656 571 m 1044 469 q 1019 486 1044 486 q 801 463 944 486 q 819 124 810 349 q 922 150 850 126 q 1024 172 988 171 q 1044 469 1044 374 z "},"D":{"ha":1213,"x_min":-42,"x_max":1213,"o":"m 1213 -61 q 971 -85 1033 -85 q 807 -21 889 -85 q 671 118 753 21 q 546 254 582 222 q 554 110 547 207 q 561 -36 561 14 q 492 -294 561 -268 q 447 -192 447 -253 q 465 17 447 -119 q 485 224 483 158 q 261 4 365 86 q -11 -149 136 -94 l -42 -142 q 467 307 224 -22 l 313 285 l 300 263 l 274 254 q 133 575 211 449 l 136 583 q 193 565 147 581 q 247 553 231 553 q 367 568 297 553 q 485 596 425 582 l 485 719 q 422 706 483 719 q 358 699 385 699 q 272 751 321 699 q 485 775 413 751 q 478 892 478 890 q 440 1001 469 960 q 513 999 494 1001 q 581 974 553 993 q 557 793 569 914 q 636 818 567 796 q 704 839 699 839 q 758 832 704 839 l 783 811 l 774 793 l 557 733 l 557 611 q 683 643 590 615 q 811 667 763 667 q 890 640 839 667 q 960 592 938 615 q 860 446 876 472 q 769 293 808 367 l 758 288 l 736 296 l 749 339 l 550 313 q 1213 -61 774 46 m 801 586 q 783 611 799 611 q 669 590 742 611 q 554 564 586 568 q 546 347 554 490 l 758 375 q 800 586 800 531 l 801 586 m 485 553 q 251 518 381 540 q 281 418 265 482 q 304 317 297 343 l 483 342 l 485 553 m 731 518 q 589 401 686 476 q 619 481 604 442 q 663 540 644 540 q 731 518 731 540 m 411 407 q 396 364 411 364 q 384 372 390 364 q 371 397 378 379 q 314 475 356 435 q 383 467 365 475 q 411 407 411 451 z "},"E":{"ha":1093,"x_min":4,"x_max":1093,"o":"m 1093 768 q 921 731 1075 738 q 719 724 819 728 l 632 557 l 603 553 q 658 715 624 607 l 625 715 q 415 688 528 715 l 417 617 q 411 553 418 590 l 396 544 l 374 550 l 361 678 q 231 650 296 664 q 101 633 149 633 q 39 658 74 633 q 4 708 4 682 q 357 728 76 708 q 336 832 347 781 q 278 921 322 879 q 403 871 379 917 q 415 733 417 844 l 672 757 q 699 893 699 842 q 679 981 699 921 q 821 921 781 964 q 782 846 813 893 q 743 772 751 799 q 858 796 775 775 q 975 815 932 815 q 1093 768 1057 815 m 951 454 q 886 217 938 351 q 765 10 826 60 q 700 78 746 19 q 638 158 668 118 q 729 131 704 131 q 811 249 783 131 q 832 413 832 332 q 744 464 832 464 q 615 449 694 464 q 486 426 518 431 q 564 360 515 407 q 532 146 532 276 q 537 12 532 100 q 542 -117 542 -76 q 501 -297 542 -296 q 468 -71 468 -274 q 471 81 468 -10 q 474 182 474 171 q 469 424 474 342 q 357 397 414 410 q 244 381 285 381 q 172 426 192 381 q 494 482 217 432 q 817 518 692 518 q 893 499 851 518 q 950 454 935 481 l 951 454 z "},"F":{"ha":1251,"x_min":-56,"x_max":1251,"o":"m 1251 -32 q 1150 -64 1239 -64 q 1069 -60 1119 -64 q 1010 -56 1019 -56 q 767 -81 928 -56 q 524 -107 606 -107 q 429 -56 461 -107 q 661 -39 507 -53 q 642 140 642 -18 q 647 327 642 211 q 651 457 651 443 q 619 731 651 647 q 667 725 636 731 q 714 719 699 719 q 836 746 757 719 q 957 772 915 772 q 1023 753 988 772 q 1072 708 1058 735 q 1032 599 1069 701 q 1010 482 1010 538 l 1010 10 q 1065 18 1018 10 q 1122 24 1100 24 q 1251 -32 1222 24 m 510 -10 l 504 -21 l 497 -24 q 426 26 465 -11 q 363 85 372 76 q 39 -160 217 -106 q 188 -28 150 -64 q 314 124 267 50 q 249 172 290 147 q 179 215 214 193 q 172 243 172 243 l 204 369 q 107 338 185 365 q 7 317 47 317 q -56 382 -51 317 q 215 424 57 390 q 265 732 265 608 q 239 900 265 826 q 376 836 376 900 q 336 642 376 768 q 278 446 286 490 q 418 486 358 454 l 421 529 q 408 583 424 557 q 465 561 435 578 q 504 518 504 539 q 460 338 504 471 q 394 150 426 243 q 510 -10 499 61 m 953 571 l 953 678 q 901 699 953 699 q 714 685 839 699 l 714 475 q 893 504 758 479 l 903 499 q 807 440 904 440 q 755 443 788 440 q 714 446 722 446 l 714 243 q 783 252 738 243 q 850 261 828 261 q 903 243 879 261 q 844 207 903 224 q 767 194 796 194 q 714 211 754 194 q 693 -32 714 31 q 936 0 774 -19 q 944 285 936 94 q 953 571 953 475 m 414 446 q 264 394 364 431 q 242 318 261 386 q 225 250 225 258 q 232 224 225 231 q 344 176 278 206 q 414 446 389 297 z "},"G":{"ha":1138,"x_min":-12,"x_max":1138,"o":"m 1138 310 q 1107 254 1128 292 q 1068 99 1093 228 q 1018 -110 1039 -49 q 938 -214 983 -214 l 928 -206 q 885 -62 917 -157 q 701 -57 783 -57 q 515 -72 607 -57 q 485 -142 507 -97 l 463 -128 q 388 329 426 124 q 421 328 401 332 q 454 324 446 324 q 683 342 581 324 q 668 467 678 436 q 640 561 644 544 q 778 508 732 553 q 765 429 776 490 q 757 347 757 379 q 861 372 788 351 q 965 392 926 392 q 1060 367 1006 392 q 1138 310 1115 342 m 1019 808 q 954 751 1007 786 q 904 674 913 724 l 926 639 q 690 592 906 618 q 421 561 556 576 q -1 -149 318 57 l -12 -139 q 254 238 143 -12 q 361 688 361 479 q 335 811 361 708 l 340 828 l 356 836 l 438 793 q 667 849 494 801 q 897 889 811 889 q 964 860 922 889 q 1018 808 1006 832 l 1019 808 m 851 790 q 847 800 851 790 q 835 804 835 804 q 638 786 751 804 q 440 751 539 769 l 426 603 q 826 660 560 618 q 851 790 851 729 m 997 317 q 990 332 994 324 q 975 339 983 335 q 864 328 933 339 q 751 313 781 315 l 742 188 q 792 197 751 189 q 840 204 821 204 q 906 179 906 204 q 833 146 906 157 q 740 138 788 142 l 735 -8 q 826 -4 826 -4 q 922 -56 897 -4 q 976 111 950 -54 q 997 317 997 247 m 690 -19 q 683 126 682 58 q 600 119 614 119 q 560 131 583 119 q 535 158 536 143 q 683 176 586 160 l 683 310 q 465 296 539 297 q 507 -44 485 186 q 690 -19 690 -18 z "},"H":{"ha":1147,"x_min":-17,"x_max":1147,"o":"m 1147 624 q 1000 586 1122 586 q 942 588 981 586 q 896 588 908 589 q 867 489 868 528 l 890 471 l 885 454 q 779 431 844 440 q 672 413 693 417 l 672 317 q 742 333 696 318 q 814 347 789 347 q 885 307 871 347 q 783 276 858 285 q 672 264 728 271 l 672 158 q 817 179 715 161 q 961 196 908 196 q 1092 138 1056 196 l 1075 111 q 919 99 1007 99 q 795 102 878 99 q 672 106 713 106 q 677 6 672 74 q 682 -96 682 -62 q 619 -318 682 -271 q 596 -119 596 -304 q 598 4 596 -69 q 600 85 600 78 q 447 58 551 82 q 294 35 349 35 l 240 74 q 419 113 308 93 q 600 143 563 136 l 600 254 l 433 219 q 392 264 406 240 q 600 296 458 264 l 600 401 q 415 378 538 394 l 389 410 q 600 446 460 418 l 600 553 q 468 529 558 550 q 335 508 383 508 q 240 550 276 508 q 421 567 313 550 q 600 592 589 590 l 600 706 q 451 692 444 692 q 432 699 451 692 l 415 728 q 596 747 518 731 l 596 882 q 558 985 596 899 q 694 921 672 982 q 672 761 672 824 q 754 789 713 775 q 832 808 813 808 q 894 794 858 808 q 947 761 929 781 q 929 703 947 739 q 904 646 908 663 q 986 664 931 647 q 1067 681 1038 681 q 1115 664 1092 681 q 1147 624 1139 647 m 290 736 q 275 699 290 699 q 188 754 261 699 q 96 826 142 790 l 128 826 q 235 814 201 826 q 290 736 290 794 m 142 463 q 133 439 142 451 q 114 426 124 426 q 85 436 96 426 q 34 494 65 453 q -17 553 3 536 q 142 463 142 538 m 272 392 q 93 -85 179 190 q 8 61 8 0 q 36 88 8 74 q 75 108 72 106 q 251 392 135 164 l 272 392 m 832 740 l 672 719 l 672 603 l 828 626 l 832 740 m 824 586 l 672 568 l 672 454 l 814 475 l 824 586 z "},"I":{"ha":1150,"x_min":-17,"x_max":1150,"o":"m 689 878 q 672 831 689 858 q 636 804 656 804 q 618 818 629 804 q 468 985 571 875 q 604 964 546 982 q 689 878 689 936 m 1150 751 q 1122 732 1150 740 q 944 713 1057 713 q 882 713 924 713 q 818 714 839 714 q 447 662 693 714 q 75 610 201 610 q -17 667 24 610 q 385 711 274 699 q 785 771 610 739 q 904 796 844 783 q 1024 811 975 811 q 1097 796 1056 811 q 1150 751 1150 776 m 1026 10 q 996 -62 1026 -62 q 964 -56 975 -62 q 924 -14 953 -49 q 742 158 851 74 q 983 85 910 158 q 1026 10 1026 42 m 869 518 q 810 438 849 483 q 746 360 746 360 l 785 347 l 764 319 q 664 296 724 303 q 563 285 614 290 q 624 222 585 265 q 615 29 615 128 q 621 -28 615 10 q 626 -85 626 -65 q 606 -185 626 -133 q 538 -251 579 -251 q 460 -154 508 -222 q 381 -57 411 -86 q 450 -90 415 -74 q 521 -111 499 -111 q 535 -107 521 -111 q 553 74 553 -69 q 521 275 553 189 l 438 250 q 419 225 424 229 q 393 211 410 213 q 332 374 361 265 q 279 540 301 493 q 385 504 343 535 q 564 549 429 510 q 742 583 679 583 q 814 563 771 583 q 869 518 857 542 m 292 106 q 176 -107 292 -53 q 152 -88 163 -106 q 142 -57 142 -71 q 151 -21 142 -43 q 190 31 156 -14 q 286 179 251 113 q 292 106 292 146 m 746 486 q 736 513 746 499 q 714 526 726 526 q 636 517 682 526 q 558 501 597 508 q 390 482 490 489 q 426 289 417 383 q 554 311 508 299 q 696 351 610 332 q 746 486 746 457 z "},"J":{"ha":1244,"x_min":-54,"x_max":1244,"o":"m 569 804 q 507 740 569 740 q 488 767 494 740 q 421 953 457 886 q 569 804 569 842 m 1244 222 q 1061 196 1185 196 q 871 264 963 196 q 724 418 801 315 q 603 586 663 503 q 378 561 508 581 l 401 508 q 213 254 358 406 q -40 89 50 88 l -54 90 q 326 550 275 313 q 222 528 296 547 q 117 508 156 508 q 10 564 60 508 q 628 633 292 569 q 707 782 694 754 q 750 943 750 875 q 726 1007 750 965 q 854 943 819 992 q 774 796 846 906 q 674 642 676 647 q 811 668 711 646 q 947 688 896 688 q 1076 624 1040 688 q 986 593 1040 593 q 926 598 967 593 q 865 603 886 603 q 749 597 819 603 q 632 588 653 589 q 901 347 740 443 q 1244 222 1063 251 m 339 733 q 315 654 339 654 q 288 700 308 654 q 200 857 251 781 q 338 733 338 850 l 339 733 m 892 118 l 886 106 q 782 96 840 96 q 678 101 747 96 q 574 106 608 106 q 574 17 574 108 q 517 -297 574 -243 q 494 -171 494 -279 q 507 106 494 -143 q 381 82 468 104 q 254 61 300 61 q 157 94 221 61 l 176 93 q 344 110 243 89 q 510 147 428 129 l 510 267 q 422 258 415 258 q 325 289 354 258 q 511 317 403 290 q 514 356 514 335 q 501 407 514 388 q 463 446 493 418 q 519 442 492 443 q 572 424 553 438 q 568 329 579 381 q 625 339 586 331 q 685 347 664 347 q 739 329 724 347 q 661 286 724 301 q 568 271 649 283 l 568 158 q 669 169 594 160 q 769 179 732 179 q 892 118 875 179 z "},"K":{"ha":1138,"x_min":-12,"x_max":1138,"o":"m 1138 493 q 1090 446 1138 454 q 1015 446 1088 446 l 736 446 q 744 265 736 399 q 753 57 753 131 q 683 -276 753 -178 q 646 21 646 -151 q 654 228 646 90 q 663 433 663 367 q 554 424 608 429 q 449 401 493 417 q 342 67 449 258 q 92 -146 224 -149 l 72 -144 q 299 82 213 -71 q 389 392 379 226 q 247 357 318 375 q 103 339 165 339 q -12 382 22 339 q 189 404 88 393 q 389 442 306 418 l 393 565 q 378 713 396 633 q 251 700 297 700 q 167 740 190 700 q 479 810 233 749 q 793 857 672 857 q 906 826 885 857 l 881 790 q 767 772 840 781 q 653 757 685 764 q 739 656 739 733 q 737 613 739 644 q 735 564 735 582 l 736 499 q 868 522 774 501 q 1000 540 951 540 q 1138 493 1090 540 m 656 482 l 656 626 q 635 751 656 707 q 413 724 524 736 q 463 624 463 674 q 458 561 463 603 q 454 499 454 519 q 456 476 454 490 q 456 454 456 461 q 656 482 522 464 z "},"L":{"ha":1186,"x_min":-32,"x_max":1186,"o":"m 1186 -121 q 976 -137 1022 -137 q 792 32 899 -137 q 660 275 757 86 l 638 264 q 518 21 596 119 q 294 -125 424 -99 q 478 49 419 -32 q 585 275 536 129 q 498 264 558 274 q 406 254 438 254 q 310 307 353 254 q 383 303 343 303 q 597 319 446 303 q 621 571 603 351 q 573 560 606 569 q 522 550 540 550 q 467 558 493 550 l 443 588 q 624 615 518 588 q 629 804 629 786 q 606 943 629 878 q 743 867 718 922 q 679 624 718 788 q 774 649 704 626 q 869 667 833 667 q 975 615 944 667 q 911 482 958 572 q 847 347 865 397 q 935 368 869 351 q 1022 383 989 383 q 1133 339 1108 383 l 1117 311 q 897 293 1026 299 q 679 285 788 289 q 885 21 756 128 q 1186 -121 1025 -97 m 393 513 l 389 479 l 375 464 q 304 515 346 481 q 236 571 256 557 q 240 353 236 500 q 244 133 244 207 q 246 92 244 125 q 246 33 246 57 q 185 -214 246 -187 q 151 -128 151 -196 q 167 -53 151 -101 q 183 21 183 -6 l 186 719 q 142 921 186 863 q 224 893 175 918 q 279 836 279 864 q 260 711 279 789 q 236 586 239 621 q 333 576 313 582 q 392 513 393 560 l 393 513 m 64 317 q 42 260 64 289 q -6 231 21 231 q -24 251 -15 231 q -32 285 -32 272 q -14 338 -32 303 q 14 390 0 364 q 49 540 39 447 l 63 540 l 63 317 l 64 317 m 867 599 l 865 599 q 849 615 868 615 q 764 604 817 615 q 681 588 703 590 q 647 329 676 456 q 817 347 704 332 l 867 599 z "},"M":{"ha":1181,"x_min":-29,"x_max":1181,"o":"m 801 615 q 589 446 801 576 q 661 547 625 496 q 685 667 685 592 q 801 615 801 625 m 1181 -21 q 913 -57 1056 -57 q 697 99 844 -57 q 506 317 601 208 l 508 -1 q 496 -286 508 -131 l 474 -297 q 429 -201 429 -292 q 440 47 429 -114 q 453 296 451 219 q 249 40 403 190 q -15 -125 78 -128 l -29 -125 q 429 339 286 88 q 274 297 351 318 q 115 275 182 275 q 44 299 115 275 l 31 324 q 240 349 93 335 q 449 378 375 363 l 449 678 q 372 664 428 676 q 294 653 324 653 q 243 664 294 653 l 221 688 q 449 733 251 701 l 449 847 q 411 985 449 915 q 547 921 511 979 q 535 836 546 913 q 526 751 526 785 q 607 771 549 754 q 688 785 657 785 q 793 747 769 785 q 658 703 765 718 q 506 688 582 696 l 506 392 q 679 417 547 396 q 854 433 788 433 q 971 392 940 433 l 957 372 q 740 350 913 354 q 506 344 624 347 q 806 96 619 192 q 1181 -21 976 6 m 349 463 q 331 421 349 421 q 221 561 307 421 q 306 533 268 558 q 349 463 349 506 z "},"N":{"ha":985,"x_min":46,"x_max":985,"o":"m 985 18 l 983 18 q 983 4 983 15 q 968 -44 983 -44 q 657 222 961 -44 q 858 160 804 185 q 985 18 985 101 m 922 486 l 915 469 q 736 429 861 440 q 544 413 640 421 q 557 108 557 300 q 469 -232 557 -200 l 450 -225 q 385 -131 418 -178 q 308 -44 346 -78 q 440 -78 411 -78 l 457 -75 q 486 172 486 -17 q 479 399 486 324 q 296 358 335 369 q 124 285 197 331 q 78 378 90 313 q 150 392 92 389 q 197 678 197 585 q 161 751 197 711 l 181 756 q 224 743 196 756 q 267 731 253 731 q 434 780 313 731 q 588 861 556 829 q 646 900 629 900 q 714 878 672 900 q 775 836 751 858 q 279 699 608 793 q 251 543 265 621 q 203 394 233 454 q 340 418 249 404 q 476 442 431 432 q 464 547 476 504 q 425 646 456 572 q 564 583 540 646 q 540 454 540 522 q 674 490 576 458 q 806 518 760 518 q 922 486 896 518 m 210 89 q 171 -15 210 44 q 89 -82 129 -82 q 59 -60 72 -82 q 46 -21 46 -39 q 88 61 46 11 q 150 140 146 131 q 186 240 175 182 l 196 240 q 204 164 197 222 q 208 89 208 117 l 210 89 z "},"O":{"ha":1247,"x_min":-54,"x_max":1247,"o":"m 1032 847 q 993 807 1032 836 q 815 633 892 732 l 803 633 q 890 793 832 686 q 901 856 899 808 q 908 908 904 904 q 979 884 926 908 q 1032 847 1032 860 m 719 688 q 706 652 719 671 q 678 633 693 633 q 653 671 671 633 q 582 772 631 719 q 663 744 613 772 q 718 688 718 714 l 719 688 m 1247 -92 q 1013 -110 1089 -110 q 751 190 964 -110 q 633 7 719 108 q 463 -111 532 -111 l 451 -110 q 619 60 576 4 q 710 275 701 164 q 619 258 706 275 q 529 249 565 249 q 454 285 493 249 q 708 317 539 292 q 717 378 717 354 q 701 499 717 457 q 654 489 693 497 q 607 482 625 482 q 539 515 582 482 q 738 568 586 522 q 936 606 864 606 q 1036 571 1019 606 l 1026 560 q 718 501 924 539 q 785 404 785 471 q 775 332 785 378 q 906 367 807 336 q 1038 392 988 392 q 1142 336 1108 392 l 1131 324 q 774 285 1097 318 l 768 243 q 1247 -92 950 -22 m 550 815 q 474 767 531 782 q 381 751 426 760 q 444 678 444 714 q 434 635 444 663 q 424 592 424 607 l 424 179 l 488 196 l 488 179 l 426 150 q 433 -15 433 71 q 392 -232 433 -203 q 349 -85 349 -200 q 360 22 349 -49 q 372 126 372 92 q 205 56 315 107 q 35 -15 94 6 q -54 60 1 -1 l 135 97 q 140 311 135 168 q 146 526 146 454 q 136 708 146 553 q 76 699 69 699 q 25 740 49 699 q 244 797 68 747 q 465 836 382 836 q 549 815 525 836 l 550 815 m 372 719 q 368 736 372 719 l 357 744 l 169 715 q 199 692 185 710 q 213 657 213 674 q 203 588 213 632 q 192 518 192 539 q 325 561 235 533 l 338 554 l 343 540 q 274 507 328 515 q 192 499 232 503 l 192 347 q 307 365 289 365 q 338 351 338 365 q 267 317 338 317 q 229 322 253 317 q 192 329 200 328 l 192 115 q 371 161 296 139 l 372 719 z "},"P":{"ha":1092,"x_min":6,"x_max":1092,"o":"m 1028 667 q 624 603 1028 619 q 519 463 578 528 q 385 369 436 368 q 550 610 507 521 q 624 889 599 713 l 628 900 q 753 847 719 899 q 699 740 738 810 q 646 633 661 669 q 801 676 686 639 q 954 708 901 708 q 1028 667 1028 708 m 839 424 q 822 383 839 406 q 789 360 806 360 q 772 367 781 360 q 739 403 757 379 q 708 442 713 438 q 649 508 676 479 q 757 482 686 508 q 839 424 839 453 m 1092 243 q 1054 207 1082 228 q 1018 169 1026 186 l 944 24 q 1007 -11 1007 25 q 779 -56 988 -33 q 521 -75 626 -71 q 504 -103 524 -103 q 482 -81 493 -103 q 468 -44 471 -58 q 446 111 457 33 q 407 264 432 199 q 456 251 418 263 q 504 240 488 240 q 724 285 579 240 q 944 329 869 329 q 1024 297 972 329 q 1092 243 1069 269 m 332 826 q 301 436 301 660 q 308 165 301 346 q 315 -108 315 -17 q 279 -214 315 -199 q 222 -100 222 -183 q 235 -28 222 -75 q 247 42 247 18 l 247 761 q 229 822 247 789 q 194 878 211 850 q 332 826 285 875 m 121 557 q 113 433 121 515 q 104 310 104 351 q 58 85 104 85 q 25 190 25 85 q 36 367 25 250 q 47 544 47 485 q 31 594 47 557 q 6 646 18 619 q 121 557 121 646 m 933 221 q 904 264 933 264 q 808 257 865 264 q 711 243 715 243 q 753 169 753 238 q 733 -11 753 90 q 888 21 785 -3 q 915 119 901 69 q 933 221 933 182 m 701 -19 l 681 231 l 508 211 q 513 158 508 190 q 518 104 518 118 q 521 -44 521 65 q 701 -19 581 -35 z "},"Q":{"ha":1176,"x_min":15,"x_max":1176,"o":"m 828 921 q 810 897 829 907 q 776 881 792 888 q 596 751 688 839 l 575 751 q 700 985 682 889 q 767 960 718 983 q 828 921 810 936 m 456 801 q 421 761 456 761 q 400 771 408 761 q 310 900 372 815 q 451 815 419 900 q 454 801 454 807 l 456 801 m 1176 -189 q 1050 -221 1150 -208 q 914 -232 968 -232 q 700 -81 833 -232 q 524 142 611 31 q 367 -104 497 -7 q 86 -196 240 -196 q 319 -71 224 -151 q 460 147 432 24 q 301 124 422 144 q 143 106 203 106 q 15 158 68 106 q 469 204 303 171 q 482 288 482 263 l 478 332 q 385 317 431 324 q 292 307 331 307 q 204 347 247 307 q 501 382 332 351 l 501 482 q 368 472 357 472 q 331 479 368 472 l 307 501 q 494 529 372 514 l 481 624 q 338 615 338 615 q 257 657 283 615 q 497 704 311 664 q 739 738 647 738 q 839 703 818 738 l 826 690 q 676 663 768 675 q 525 642 533 643 q 557 540 564 614 q 631 551 581 542 q 708 561 681 561 q 747 550 708 561 l 765 522 q 664 501 740 506 q 553 499 608 500 l 553 388 q 643 403 575 390 q 732 413 699 413 q 807 403 767 413 l 828 369 q 803 363 818 364 q 778 363 793 361 q 751 364 757 364 q 511 339 629 364 q 550 265 550 290 q 539 211 550 249 q 746 243 589 215 q 954 264 875 264 q 1071 200 1029 264 q 965 172 1071 172 q 854 177 924 172 q 778 182 785 182 q 553 161 636 182 q 831 -74 688 1 q 1176 -189 943 -132 z "},"R":{"ha":1232,"x_min":0,"x_max":1232,"o":"m 1039 832 q 1024 791 1036 821 q 1013 744 1013 761 l 1013 550 q 1019 492 1013 531 q 1025 433 1025 453 q 926 254 1025 257 q 826 365 881 314 q 919 336 892 336 l 939 339 q 950 382 950 382 l 950 731 q 947 772 950 746 q 944 815 944 804 q 919 826 919 826 l 721 815 l 732 692 q 797 702 753 692 q 861 713 840 713 q 888 685 879 713 q 733 657 867 650 l 725 522 q 781 533 744 522 q 838 544 818 544 q 867 536 838 544 l 878 518 q 718 486 851 483 q 651 321 678 367 q 517 211 599 233 q 643 426 606 315 q 678 672 678 529 q 644 857 678 772 q 717 843 685 857 q 818 869 754 850 q 918 900 889 893 q 1039 832 993 871 m 575 772 q 536 713 557 750 q 529 490 533 601 q 465 317 519 317 l 465 399 l 286 365 q 256 296 286 317 q 233 404 233 296 q 236 501 233 442 q 239 564 239 560 q 204 793 239 682 q 244 789 218 793 q 285 785 271 785 q 394 810 325 785 q 471 836 464 836 q 526 813 490 836 q 574 772 563 789 l 575 772 m 1232 -122 q 1193 -151 1232 -151 q 1024 -133 1136 -151 q 854 -115 911 -115 q 481 -153 729 -115 q 107 -192 232 -192 q 0 -139 53 -192 q 328 -107 110 -125 q 296 39 313 -33 q 239 179 275 118 q 293 181 261 183 q 349 176 340 176 q 622 202 440 176 q 897 228 804 228 q 951 202 915 228 q 994 158 986 176 q 953 47 988 138 q 918 -67 926 -21 q 1017 -62 954 -69 q 1115 -57 1088 -57 q 1189 -69 1157 -57 q 1232 -122 1232 -87 m 476 588 l 476 653 q 472 756 476 699 l 465 765 q 451 768 453 768 l 285 756 l 285 592 q 345 603 306 592 q 406 615 385 615 q 433 586 433 615 q 285 557 433 556 l 285 399 q 347 419 303 401 q 413 433 388 433 q 440 431 422 433 q 464 426 458 428 q 476 588 476 550 m 896 165 l 888 181 l 874 188 l 353 143 l 369 -103 q 500 -92 375 -103 q 490 -36 496 -74 l 482 133 q 547 -3 547 133 q 546 -46 547 -19 q 546 -81 546 -72 l 546 -85 l 656 -79 q 675 158 675 90 q 751 126 729 158 q 729 81 742 111 l 693 -75 l 861 -72 l 896 165 z "},"S":{"ha":1142,"x_min":26,"x_max":1142,"o":"m 1142 -192 l 1122 -214 q 1089 -224 1089 -224 q 747 -32 922 -224 q 522 310 615 114 q 307 254 361 254 q 224 285 250 254 q 364 317 293 300 q 501 357 446 335 l 424 544 q 542 510 528 544 q 561 382 551 446 q 674 422 590 386 q 778 454 749 454 q 846 406 829 454 q 575 329 831 381 q 750 58 681 147 q 993 -117 888 -117 q 1074 -24 1039 -117 q 1110 108 1085 8 l 1119 113 q 1142 -192 1129 11 m 761 826 q 685 754 750 811 q 635 657 646 719 l 664 647 l 674 631 q 450 561 651 599 q 192 518 321 540 q 196 355 192 464 q 200 190 200 246 q 182 -28 200 64 q 435 94 347 42 l 467 94 q 321 -4 338 8 q 188 -118 239 -62 q 97 -214 160 -153 q 26 -96 35 -169 l 118 -51 q 129 157 129 26 l 129 536 q 76 793 129 697 q 192 775 153 794 q 413 840 238 782 q 607 893 574 893 q 761 826 700 893 m 589 785 l 582 799 q 568 804 575 801 q 475 789 532 804 q 385 765 394 767 q 192 740 324 753 q 194 650 192 721 q 194 561 197 596 q 333 583 290 575 q 469 615 410 597 q 564 646 500 626 q 589 785 589 747 z "},"T":{"ha":1068,"x_min":67,"x_max":1068,"o":"m 1068 826 q 1046 777 1064 807 q 1026 740 1028 747 q 1024 632 1024 726 q 1028 228 1024 514 q 1033 -85 1033 -58 q 1006 -156 1033 -111 q 953 -214 978 -201 q 865 -126 914 -187 q 785 -32 808 -54 q 900 -57 835 -58 l 943 -56 q 974 42 974 -33 q 943 793 974 507 l 914 826 q 813 806 886 815 q 713 781 747 797 l 710 561 q 778 581 717 563 q 847 592 819 592 q 885 582 847 592 l 899 561 l 704 518 l 707 458 q 700 393 708 433 q 689 329 690 338 q 778 342 704 331 q 868 350 833 350 q 921 329 868 350 l 899 307 l 689 285 q 564 -11 656 124 q 331 -232 468 -153 l 299 -224 q 569 121 478 -110 q 649 558 649 318 q 594 836 649 714 q 651 831 613 836 q 710 826 690 826 q 821 852 749 826 q 932 878 893 878 q 1006 863 965 878 q 1068 826 1047 847 m 478 699 q 456 657 475 685 q 436 615 436 629 l 436 211 q 418 147 436 179 q 372 106 400 115 q 331 231 351 199 q 163 200 249 224 l 163 186 q 117 106 163 106 q 88 179 88 106 q 93 226 88 194 q 99 275 99 258 l 99 633 q 67 731 99 671 q 163 708 119 731 q 271 743 182 713 q 363 772 354 772 q 424 746 385 772 q 478 699 463 719 m 386 678 q 363 703 368 703 q 263 693 325 703 q 163 681 189 682 l 163 475 q 331 499 211 481 l 351 469 q 315 458 339 465 q 240 447 292 451 q 163 433 188 442 l 163 243 q 264 253 221 253 q 368 243 288 253 q 386 678 375 388 z "},"U":{"ha":1068,"x_min":25,"x_max":1068,"o":"m 1068 463 q 1029 365 1051 431 q 1000 32 1014 199 q 860 -232 967 -203 q 722 -56 817 -169 q 854 -85 836 -85 l 872 -82 q 918 168 901 -54 q 931 446 931 328 l 893 475 q 592 447 801 475 l 649 436 l 669 413 q 604 340 638 376 q 546 264 567 299 q 603 282 549 265 q 661 293 638 293 q 703 283 661 293 l 726 261 l 708 242 q 614 226 675 232 q 517 215 544 221 l 517 124 q 601 133 538 125 q 686 142 654 142 q 723 130 699 142 q 754 108 747 118 q 510 81 719 81 l 514 -46 q 481 -162 515 -122 q 444 -39 444 -137 q 446 17 444 -17 q 449 61 449 57 q 386 50 432 60 q 322 42 346 42 q 236 85 286 42 q 449 108 342 93 l 449 204 q 383 192 428 203 q 315 182 339 182 q 247 222 272 182 q 510 258 322 229 q 549 347 529 303 q 572 442 569 400 l 342 406 q 413 313 413 360 q 400 275 413 313 q 318 399 342 290 q 132 382 257 394 q 131 307 131 346 q 138 134 131 249 q 144 -37 144 19 q 131 -128 144 -92 l 101 -149 q 54 56 54 -103 q 60 199 54 108 q 67 313 67 289 q 25 433 67 381 l 49 436 q 92 426 64 436 q 135 417 119 417 q 275 432 193 417 q 413 463 343 447 q 449 633 440 546 q 332 615 340 615 q 236 653 256 615 q 349 669 292 661 q 458 696 413 681 q 481 908 481 846 q 456 971 481 908 q 607 921 558 971 q 539 708 561 850 q 621 733 558 713 q 701 751 674 751 q 794 708 764 751 l 781 694 q 529 653 768 692 q 458 472 522 633 q 683 513 508 478 q 911 540 824 540 q 999 517 950 540 q 1068 463 1053 493 z "},"V":{"ha":1147,"x_min":-17,"x_max":1147,"o":"m 1126 571 l 1114 544 q 1013 465 1072 517 q 915 383 942 404 q 964 533 963 497 l 950 553 q 788 533 888 553 q 626 504 661 507 q 479 364 575 431 l 461 364 q 606 597 521 436 q 701 843 701 778 q 690 936 701 857 q 835 854 804 906 q 767 775 808 831 l 649 544 q 815 594 690 551 q 982 631 921 631 q 1057 610 1008 631 q 1126 571 1106 590 m 1147 42 q 1108 -19 1147 -19 q 1093 -10 1100 -19 q 1063 29 1086 -1 q 904 222 979 143 q 1063 172 988 219 q 1147 42 1147 118 m 810 360 q 801 335 808 354 q 794 307 794 317 q 799 84 794 233 q 803 -140 803 -65 q 736 -256 803 -240 q 660 -156 701 -224 q 589 -51 608 -75 q 647 -76 618 -64 q 707 -92 683 -92 q 728 -47 728 -92 l 729 249 q 672 413 729 338 q 749 400 707 413 q 810 360 797 385 m 536 131 q 510 26 536 86 q 440 -44 478 -44 q 419 18 419 -44 q 460 110 419 31 q 504 243 501 189 l 518 240 q 527 185 518 222 q 536 131 536 149 m 451 815 q 304 557 422 749 q 342 475 342 535 q 265 -192 342 -178 q 233 -62 233 -161 q 242 0 233 -39 q 254 63 253 53 q 271 515 268 171 q 140 363 208 431 q -17 258 39 261 q 219 549 121 383 q 332 900 332 742 q 451 815 426 883 z "},"W":{"ha":1192,"x_min":-33,"x_max":1192,"o":"m 1192 271 q 1104 258 1176 258 q 983 263 1061 258 q 892 268 904 268 q 681 261 786 268 l 683 60 q 633 -314 688 -257 q 608 -43 611 -289 q 611 254 607 118 q 342 193 543 246 q 72 147 171 147 q 13 167 44 147 q -33 211 -19 186 q 351 261 168 229 q 272 518 318 422 q 326 508 292 518 q 378 499 360 499 q 496 514 428 499 q 611 544 554 529 l 611 719 q 554 706 583 713 q 496 699 519 699 q 421 731 472 699 q 185 540 296 574 q 346 731 294 650 q 431 963 413 838 q 538 908 507 950 q 435 751 507 853 q 625 801 489 758 q 814 839 744 839 q 903 808 868 839 l 890 782 q 767 750 844 761 q 642 731 665 736 l 671 724 l 685 708 l 685 561 q 778 583 710 564 q 871 599 836 599 q 932 586 871 599 l 960 561 q 828 522 932 536 q 681 508 825 522 l 681 310 q 846 332 722 314 q 1011 347 949 347 q 1192 271 1175 347 m 611 501 q 378 464 533 492 q 392 264 381 397 q 610 296 489 285 l 611 501 z "},"X":{"ha":1119,"x_min":-6,"x_max":1119,"o":"m 997 401 q 969 347 997 347 q 947 360 960 347 q 817 499 904 407 q 928 478 876 499 q 997 401 997 451 m 1039 699 q 856 617 975 674 q 881 671 878 664 q 899 728 896 706 l 885 740 l 681 708 q 744 633 744 675 q 735 560 744 608 q 725 486 725 511 q 735 385 725 453 q 744 285 744 318 q 732 219 744 253 q 692 169 717 181 q 625 222 663 182 q 564 285 572 278 q 647 271 596 282 l 669 289 q 675 551 675 364 q 642 699 675 647 q 576 688 628 697 q 489 590 514 613 q 374 536 432 540 q 530 722 458 600 q 610 946 601 844 q 724 889 703 946 q 665 810 706 856 q 603 733 617 753 q 913 793 706 757 q 1039 699 988 760 m 1119 101 q 1096 61 1119 61 q 992 119 1088 61 q 876 190 935 156 q 915 192 892 192 l 949 192 q 1119 101 1119 192 m 533 451 q 483 324 533 386 q 456 300 464 300 q 435 357 435 300 q 467 433 435 385 q 507 518 501 489 l 522 518 q 533 451 533 488 m 407 878 q 333 755 385 836 q 257 631 281 674 l 296 615 q 301 536 301 607 q 244 190 301 192 q 222 300 222 215 q 231 422 222 339 q 240 549 240 506 l 239 599 q 17 410 121 478 l -6 410 q 185 635 74 478 q 308 889 308 811 q 290 943 308 889 q 406 878 381 932 l 407 878 m 639 74 q 607 31 639 31 q 567 49 588 31 q 535 83 551 67 q 458 154 507 113 q 639 74 639 150 m 1019 -139 q 864 -192 985 -167 q 696 -214 758 -214 q 499 -176 617 -214 q 344 -71 389 -140 q 300 113 304 -8 l 315 108 q 439 -75 315 -1 q 664 -139 544 -139 q 839 -107 794 -139 q 764 42 824 -22 q 906 -40 835 0 q 1019 -139 1010 -103 m 175 31 q 158 -75 175 -18 q 97 -149 135 -149 q 72 -122 82 -149 q 63 -82 63 -100 q 106 27 63 -57 q 156 150 150 111 l 174 150 l 174 31 l 175 31 z "},"Y":{"ha":1107,"x_min":0,"x_max":1107,"o":"m 642 889 q 628 852 642 868 q 593 836 614 836 q 519 897 568 836 q 463 985 483 944 q 568 954 501 983 q 642 889 642 921 m 474 557 q 462 519 474 538 q 432 501 450 501 q 389 565 418 501 q 357 646 368 611 q 453 589 410 642 q 474 557 474 565 m 960 -28 q 907 -62 960 -62 q 807 40 890 -62 q 706 169 756 106 q 863 104 772 168 q 960 -28 960 35 m 1107 464 l 1100 461 q 988 469 1063 461 q 874 476 913 476 q 543 451 717 476 l 579 410 l 583 307 q 697 319 617 308 q 811 329 769 329 q 960 278 925 329 q 851 254 922 254 q 794 256 833 254 q 738 258 754 258 l 579 254 q 585 143 579 218 q 590 29 590 68 q 506 -256 590 -212 q 424 -165 472 -229 q 346 -75 375 -100 q 494 -96 413 -96 l 507 -85 q 519 85 519 -18 q 519 254 518 235 q 392 224 456 239 q 263 207 317 207 q 146 254 171 207 q 519 296 244 254 q 514 371 518 321 q 508 446 510 421 q 307 408 461 440 q 104 382 182 382 q 0 433 42 382 q 301 472 114 458 q 604 499 542 490 q 678 690 678 632 l 675 719 q 276 699 439 699 q 243 710 276 699 l 221 740 q 510 778 318 740 q 800 815 703 815 q 896 775 868 815 q 794 740 863 747 q 683 731 739 735 q 790 667 758 707 q 642 499 738 613 q 785 522 678 501 q 926 540 872 540 q 1107 464 1075 540 m 304 69 q 275 -33 304 29 q 206 -103 240 -103 q 172 -90 186 -103 q 157 -57 157 -76 q 214 50 157 -19 q 293 154 283 133 l 304 154 l 304 69 z "},"Z":{"ha":1242,"x_min":-51,"x_max":1242,"o":"m 1242 501 q 1182 483 1221 483 q 1142 486 1168 483 q 1106 489 1117 489 q 638 447 853 489 q 524 418 626 444 q 407 399 453 399 q 344 433 382 399 q 681 489 368 436 l 682 592 q 622 585 663 592 q 560 579 581 579 q 518 615 533 579 q 682 631 611 615 l 682 740 q 613 731 669 739 q 540 724 568 724 q 493 751 506 724 q 682 781 567 756 l 683 844 q 621 985 685 914 l 647 985 q 768 925 768 985 q 756 860 768 903 q 743 793 743 817 q 818 819 763 797 q 894 839 864 839 q 965 819 939 839 l 950 792 q 743 751 949 792 l 743 646 q 890 688 783 649 l 928 678 l 943 660 q 849 621 914 635 q 743 603 796 613 l 743 501 q 1106 561 999 561 q 1185 549 1144 561 q 1242 501 1239 531 m 374 765 q 353 719 374 719 q 269 782 346 719 q 176 857 222 819 q 361 817 332 857 q 374 765 374 799 m 954 -104 q 942 -214 954 -164 q 886 -290 924 -286 q 815 -215 857 -272 q 746 -132 767 -150 l 746 -117 q 851 -149 781 -129 l 868 -142 q 874 -108 874 -132 q 863 144 874 28 q 801 343 844 343 q 705 325 768 343 q 610 307 642 307 l 610 200 q 685 218 635 201 q 764 235 736 235 q 799 200 793 235 l 789 192 q 610 161 729 186 q 608 117 610 147 q 606 74 606 88 q 678 88 631 74 q 750 101 725 101 q 796 61 790 101 q 703 43 782 50 q 599 38 651 40 q 535 -214 563 -214 q 506 -183 517 -214 q 496 -139 496 -161 q 522 32 496 -82 q 549 206 549 146 q 544 281 549 232 q 539 351 540 331 q 575 347 549 351 q 610 344 596 344 q 721 368 649 344 q 831 392 793 392 q 900 374 858 392 q 947 329 947 353 q 936 269 947 308 q 925 211 925 231 q 940 53 925 158 q 954 -104 954 -51 m 438 172 q 308 28 400 138 q 174 -107 228 -65 q 132 0 139 -60 q 201 60 146 18 l 219 464 q 115 422 206 460 q 22 383 24 383 q -51 429 -10 383 q 107 489 -26 436 q 240 540 233 540 q 332 486 301 540 q 308 430 326 467 q 285 368 289 393 q 254 85 278 274 q 438 190 317 118 l 438 172 z "},"[":{"ha":1340,"x_min":10,"x_max":1340,"o":"m 1158 540 q 1042 486 1113 528 q 926 424 954 435 l 915 433 q 1064 624 1013 492 q 1121 588 1089 614 q 1158 540 1153 561 m 1340 -103 q 1138 -128 1208 -128 q 960 36 1056 -128 q 843 275 933 82 q 710 28 797 132 q 476 -125 607 -93 q 707 110 636 3 q 793 349 774 213 q 807 671 807 443 q 790 900 807 810 q 926 826 882 871 q 885 565 901 724 q 856 303 858 319 q 1054 50 956 135 q 1340 -92 1172 -53 l 1340 -103 m 719 382 q 692 339 719 339 q 638 401 669 339 q 600 486 618 443 q 680 452 640 483 q 719 382 719 421 m 589 211 q 581 196 589 211 l 558 188 q 490 231 533 199 q 419 275 446 264 q 423 134 419 231 q 426 -11 426 38 q 425 -144 426 -121 q 378 -256 415 -242 q 347 -128 347 -224 q 365 104 347 -50 q 382 336 382 258 q 221 150 329 249 q 19 0 113 51 l 10 10 q 378 447 256 201 q 236 400 361 443 q 115 360 118 360 q 10 433 82 360 l 106 431 q 385 489 208 428 l 389 699 q 210 633 319 668 l 199 646 q 431 800 378 731 q 490 878 447 829 q 589 808 542 857 q 499 750 558 778 q 400 706 449 728 q 461 646 428 701 q 442 508 453 600 q 508 544 463 521 q 575 499 560 535 q 508 475 568 489 q 431 458 469 467 l 419 285 l 460 285 q 589 211 589 286 z "},"\\":{"ha":1271,"x_min":-64,"x_max":1271,"o":"m 1271 -56 q 944 -79 1203 -57 q 708 165 876 -40 q 486 451 689 190 q 264 136 388 276 q -37 -62 89 -62 l -64 -61 q 303 274 133 36 q 479 731 479 522 q 457 836 479 771 q 546 817 501 836 q 615 761 597 796 q 563 632 601 717 q 510 504 524 547 q 835 147 650 289 q 1271 -56 1038 -7 z "},"]":{"ha":686,"x_min":6,"x_max":686,"o":"m 686 731 q 650 674 682 713 q 622 615 622 640 l 622 10 q 601 -82 622 -36 q 539 -149 578 -135 q 505 -64 514 -119 q 483 8 496 -8 q 390 39 461 39 q 121 14 290 39 q 75 -62 113 -62 q 39 -19 57 -62 q 25 42 25 19 q 41 92 25 60 q 57 142 57 124 l 57 583 q 39 664 57 617 q 6 742 22 703 l 11 751 q 72 742 32 751 q 132 733 111 733 q 331 774 200 733 q 528 815 461 815 q 610 784 554 815 q 686 731 665 753 m 546 460 q 486 731 546 731 q 303 713 408 731 q 121 678 211 694 q 132 536 133 619 q 128 392 129 464 q 251 426 189 410 q 367 451 343 451 q 418 443 392 451 q 454 413 454 432 q 313 361 454 372 q 136 357 292 360 l 128 357 q 117 54 128 322 q 272 76 158 57 q 429 94 371 94 q 475 72 439 94 q 528 46 517 49 q 546 460 546 58 z "},"^":{"ha":1282,"x_min":69,"x_max":1282,"o":"m 1282 603 q 1014 564 1279 564 q 921 564 975 564 q 868 565 874 565 q 515 524 753 563 q 164 486 285 486 q 69 546 111 486 q 688 603 275 567 q 804 744 746 674 q 850 921 856 818 q 986 836 950 900 q 733 607 892 756 q 932 629 788 610 q 1131 646 1056 646 q 1282 603 1254 646 m 582 715 q 567 677 582 697 q 536 657 553 657 q 521 665 531 657 q 471 753 501 701 q 426 815 467 761 q 478 802 453 815 q 538 764 504 789 q 582 715 582 732 m 1144 -85 q 1101 -149 1144 -147 q 1063 -89 1086 -135 q 1029 -21 1046 -56 q 868 -60 961 -32 q 708 -107 789 -83 q 671 -28 685 -85 l 674 -21 q 892 211 783 38 q 794 203 854 211 q 699 190 717 192 q 674 243 683 208 q 774 378 746 310 q 814 540 790 418 q 901 486 868 519 q 754 243 851 407 q 933 254 874 251 q 974 340 954 297 q 994 436 994 382 q 1093 375 1050 417 q 942 181 1046 297 q 782 -8 821 47 q 1014 10 836 -6 q 976 94 997 57 q 1087 28 1029 88 q 1144 -85 1144 -32 m 649 329 q 346 -44 643 315 q 533 -21 397 -42 l 490 74 q 575 18 531 58 q 628 -62 628 -29 q 617 -93 628 -79 q 589 -107 606 -107 q 543 -44 564 -85 q 401 -97 494 -57 q 258 -149 307 -136 q 217 -61 217 -117 q 279 -44 239 -58 q 479 190 331 -15 q 268 165 346 189 q 235 226 235 188 l 238 235 q 360 344 339 315 q 417 499 388 383 q 501 436 479 486 q 424 336 494 419 q 332 224 344 242 q 419 227 361 224 q 506 231 476 231 q 558 388 558 308 q 649 329 603 388 z "},"_":{"ha":1292,"x_min":58,"x_max":1292,"o":"m 1292 -85 q 1160 -79 1253 -83 q 1028 -75 1075 -75 q 490 -118 778 -75 q 333 -150 474 -121 q 174 -169 238 -169 q 113 -143 151 -169 q 58 -96 75 -117 q 338 -78 175 -96 q 617 -44 478 -61 l 622 289 q 564 878 628 714 q 665 858 619 878 q 722 785 722 832 q 708 687 722 751 q 694 589 694 622 q 703 454 694 544 q 988 518 915 518 q 1082 499 1060 518 q 908 429 1068 451 q 699 413 803 421 l 681 -36 q 892 -11 743 -33 q 1103 10 1026 10 q 1292 -85 1261 10 z "},"`":{"ha":1328,"x_min":24,"x_max":1328,"o":"m 1328 21 q 1257 -21 1315 -21 q 1140 -10 1218 -21 q 1022 0 1061 0 q 794 -31 944 0 q 568 -62 644 -62 q 472 -11 528 -62 l 539 -14 q 704 10 581 -17 q 715 146 715 63 l 715 540 q 685 688 715 589 l 703 690 q 779 667 728 690 q 903 703 804 671 q 1011 731 993 731 q 1079 706 1039 731 q 1138 657 1119 681 q 1095 561 1115 608 q 1075 454 1075 514 l 1075 54 q 1143 58 1097 54 q 1211 61 1189 61 q 1328 21 1303 61 m 519 788 q 501 740 519 740 q 483 746 493 740 q 450 776 482 747 q 315 885 367 849 q 494 854 465 885 q 519 788 519 826 m 578 271 q 547 219 578 231 q 476 269 518 232 q 410 324 431 311 q 431 204 431 211 q 419 -21 431 90 q 357 -206 400 -206 q 336 -79 336 -206 q 349 115 336 -3 q 367 310 365 288 q 44 -11 254 124 l 24 -8 q 400 515 290 238 q 271 469 346 506 q 146 413 163 418 q 58 499 104 422 q 305 552 147 499 q 465 606 463 606 q 543 561 518 606 q 510 524 535 544 q 442 440 474 492 q 389 344 415 393 q 578 271 578 344 m 1022 633 q 1015 649 1022 633 q 1000 657 1008 653 q 892 649 961 657 q 782 639 814 640 l 779 446 q 853 461 803 447 q 931 475 903 475 q 957 462 946 475 q 968 433 968 449 q 779 424 942 411 l 779 243 q 836 268 792 246 q 896 285 871 285 q 965 250 958 285 q 779 222 944 222 q 772 121 779 185 q 761 21 763 44 l 1000 46 l 999 144 q 1010 389 997 231 q 1022 633 1022 557 z "},"a":{"ha":1124,"x_min":-7,"x_max":1124,"o":"m 1124 -90 l 1101 -107 l 785 -103 q 108 -192 414 -97 q 50 -161 85 -185 q -7 -128 10 -135 q 263 -106 106 -128 q 532 -62 397 -83 l 532 169 q 457 156 494 163 q 383 147 413 147 q 278 200 318 147 q 532 222 413 200 l 532 458 q 333 422 369 422 q 257 433 292 422 q 175 321 229 381 q 78 219 126 269 l 49 215 q 176 411 103 276 q 257 624 257 561 q 249 667 257 640 q 236 708 238 703 q 372 633 322 685 q 329 544 361 594 q 275 463 303 503 q 532 518 361 479 l 535 676 q 488 943 538 892 q 571 924 524 940 q 631 878 631 903 q 617 708 631 821 q 604 540 604 596 q 693 565 628 543 q 783 583 749 583 q 878 550 843 583 q 753 500 878 524 q 594 472 674 486 l 586 235 q 675 260 610 239 q 764 278 732 278 q 833 247 810 278 l 825 225 q 583 179 801 211 l 583 -56 q 768 -29 635 -51 q 953 -11 885 -11 q 1124 -90 1085 -11 z "},"b":{"ha":1179,"x_min":-28,"x_max":1179,"o":"m 1179 339 q 899 275 978 275 q 715 383 863 275 q 524 522 526 521 q -14 254 236 274 l -28 264 q 482 557 278 357 q 367 640 438 599 q 242 708 304 674 q 389 668 321 708 q 515 583 453 625 q 606 693 558 615 q 668 822 651 765 l 657 833 q 638 839 638 839 q 483 812 585 839 q 328 785 381 785 q 200 836 242 785 q 728 918 493 840 q 838 854 803 896 q 708 697 790 783 q 565 550 638 624 q 857 399 725 440 q 1179 339 947 371 m 1013 -89 q 929 -106 999 -101 q 796 -106 879 -108 q 696 -103 685 -103 q 238 -143 440 -103 q 138 -162 143 -162 q 53 -96 101 -162 q 485 -62 199 -96 q 497 126 490 -24 q 338 101 363 101 q 274 150 297 101 q 492 176 368 150 q 457 357 492 283 l 469 369 q 590 317 565 346 q 551 188 576 274 q 692 211 679 211 q 789 172 767 211 q 669 149 743 156 q 549 138 561 139 l 549 -57 q 709 -44 601 -57 q 871 -32 817 -32 q 1011 -89 982 -32 l 1013 -89 z "},"c":{"ha":1094,"x_min":-28,"x_max":1094,"o":"m 1094 561 q 954 528 1081 536 q 792 522 872 525 q 799 266 792 438 q 806 10 806 94 q 781 -135 806 -57 q 704 -256 750 -224 q 617 -150 668 -226 q 531 -44 565 -74 q 697 -85 613 -79 l 717 -61 q 733 508 729 65 q 586 483 690 506 q 438 464 492 464 q 353 508 378 464 q 733 561 479 526 q 647 921 728 779 q 806 867 771 921 q 788 568 788 588 q 885 586 818 569 q 982 603 947 603 q 1094 561 1076 603 m 567 261 q 532 190 567 190 q 515 200 524 190 q 482 269 513 204 q 414 392 461 314 q 510 344 460 383 q 565 261 565 301 l 567 261 m 364 688 q 342 647 363 681 q 321 583 321 613 l 321 31 q 308 -24 321 3 q 268 -62 293 -56 q 238 3 258 -53 q 206 81 215 65 q 51 57 131 81 q 6 -44 42 -44 q -28 61 -28 -14 q -13 163 -28 96 q 1 264 1 231 q -28 731 1 657 q 17 719 -12 731 q 57 708 47 708 q 167 728 94 708 q 278 747 240 747 q 330 727 299 747 q 363 688 361 707 l 364 688 m 268 678 l 265 694 q 247 699 247 699 q 153 690 213 699 q 60 678 85 679 q 71 599 68 654 q 69 493 72 560 q 68 406 68 414 q 151 433 142 433 q 238 394 236 433 q 157 375 221 386 q 69 360 71 360 q 60 101 69 222 q 183 119 167 119 q 231 92 186 119 q 256 311 250 101 q 258 561 257 436 q 263 619 258 579 q 267 678 267 658 l 268 678 z "},"d":{"ha":1117,"x_min":-4,"x_max":1117,"o":"m 632 826 q 625 788 632 807 q 600 761 615 761 q 563 771 575 761 q 484 847 533 793 q 408 921 435 900 q 540 901 475 921 q 632 826 632 875 m 1117 665 l 1103 657 q 992 669 1078 658 q 881 678 924 678 q 728 663 828 678 q 575 646 624 647 l 575 475 q 679 501 599 479 q 785 518 744 518 q 914 464 864 518 q 890 244 901 354 q 808 61 865 85 l 647 222 l 789 188 q 797 204 797 204 l 793 446 l 783 460 q 765 464 765 464 l 576 433 q 583 280 576 421 q 590 43 590 139 q 524 -297 590 -257 q 493 47 493 -264 q 501 426 493 225 q 321 399 422 422 l 324 207 q 325 118 325 119 q 292 42 319 63 q 238 146 238 58 q 244 228 238 175 q 251 296 251 281 q 242 375 251 328 q 226 454 226 450 q 276 443 240 453 q 328 433 308 433 q 415 446 363 433 q 501 464 458 456 l 501 633 q 294 604 399 619 q 88 588 172 588 q 37 609 65 588 q -4 651 8 631 l 4 657 q 189 643 207 643 q 591 695 325 643 q 993 747 857 747 q 1062 719 1022 747 q 1117 665 1101 692 z "},"e":{"ha":1192,"x_min":-33,"x_max":1192,"o":"m 1192 -117 q 1050 -133 1154 -119 q 908 -144 961 -144 q 681 44 838 -144 q 482 303 582 174 q 300 6 435 133 q -11 -128 154 -133 l -33 -128 q 269 68 146 -67 q 418 392 403 214 q 321 372 369 382 q 221 360 261 360 q 82 401 121 360 q 431 447 149 404 q 439 554 439 490 q 432 728 439 588 l 292 713 q 252 729 274 711 q 219 765 231 747 q 483 807 293 771 q 749 839 650 839 q 799 821 749 839 l 819 785 q 668 754 781 767 q 506 733 519 736 l 506 464 q 653 503 538 469 q 801 529 744 529 q 860 510 826 529 q 907 469 894 492 l 894 456 q 696 433 840 446 q 499 406 569 424 l 490 342 q 790 36 624 140 q 1192 -117 943 -61 z "},"f":{"ha":1111,"x_min":22,"x_max":1111,"o":"m 1111 215 q 1047 118 1096 185 q 989 18 1003 58 q 1051 -51 1032 8 q 838 -71 969 -71 q 622 -72 661 -69 l 622 -128 l 597 -151 q 546 32 582 -142 q 508 243 517 181 q 553 231 519 242 q 599 222 582 222 q 719 247 669 222 q 729 628 729 660 q 678 900 729 833 q 836 857 800 900 q 793 583 796 686 q 908 616 829 586 q 1004 646 988 646 q 1068 615 1056 646 q 946 549 1042 560 q 794 540 871 544 q 782 258 790 446 q 888 288 835 272 q 986 307 961 307 q 1053 272 1008 307 q 1111 215 1097 238 m 519 596 q 494 536 517 590 q 478 472 481 506 q 467 346 472 408 q 407 243 453 264 q 318 329 378 272 l 375 317 l 392 339 q 400 579 399 460 l 386 592 q 281 564 383 592 q 276 154 281 256 q 221 -206 265 -178 q 171 -96 171 -185 q 181 -25 171 -68 q 196 44 194 32 q 225 546 219 189 l 129 529 q 110 346 119 438 q 46 190 88 210 q 22 275 22 208 q 40 382 22 311 q 58 489 58 453 q 44 583 58 507 q 128 564 93 583 q 228 586 172 569 l 228 674 q 171 921 228 833 q 308 857 308 921 q 294 804 308 838 q 279 751 279 771 l 279 603 q 338 626 293 606 q 392 646 378 646 q 460 628 415 646 q 518 596 506 611 l 519 596 m 976 200 q 953 235 976 235 q 778 218 885 235 q 603 190 635 194 q 621 -32 607 117 q 936 14 754 -28 q 976 200 976 168 z "},"g":{"ha":1196,"x_min":-35,"x_max":1196,"o":"m 606 801 q 581 740 606 740 q 476 810 563 740 q 365 900 421 854 q 606 801 606 900 m 1196 -114 q 1025 -131 1160 -117 q 851 -142 918 -142 q 660 -36 779 -142 q 493 126 651 -29 q -18 -62 285 -62 l -35 -61 q 225 22 171 -1 q 444 179 368 82 q 329 322 371 281 q 176 419 257 396 l 176 426 l 247 429 q 368 351 297 432 q 461 228 415 290 q 535 486 535 386 q 504 550 535 486 q 356 526 461 547 q 208 508 263 508 q 81 550 121 508 q 167 553 89 553 q 488 620 278 553 q 808 688 697 688 q 947 657 917 688 q 760 600 925 632 q 546 561 653 581 q 593 526 568 544 q 631 486 618 507 q 517 176 625 394 q 833 -22 660 44 q 1196 -114 958 -69 z "},"h":{"ha":1104,"x_min":13,"x_max":1104,"o":"m 1104 433 q 1025 221 1060 378 q 963 -35 976 6 q 840 -192 918 -165 l 828 -182 q 756 0 789 -65 q 196 -36 493 0 q 192 -93 193 -93 q 161 -135 185 -131 q 93 119 142 -125 q 13 433 40 385 q 78 423 35 433 q 143 413 121 413 q 353 442 193 413 l 354 513 q 324 703 354 635 l 261 700 q 153 751 200 697 q 610 810 439 767 q 701 840 617 811 q 793 860 761 860 q 861 826 861 860 q 746 760 861 781 q 589 740 668 750 q 635 708 621 719 q 672 667 660 689 q 644 576 668 639 q 621 486 622 519 q 776 514 665 490 q 933 536 875 536 q 1027 500 968 536 q 1104 433 1086 464 m 578 740 q 353 708 522 733 q 407 667 399 678 q 418 601 418 649 q 410 454 418 601 q 565 475 463 460 q 576 740 569 564 l 578 740 m 954 421 q 943 455 954 438 q 915 472 932 472 q 765 458 857 472 q 615 436 651 439 l 611 310 q 614 294 611 310 l 625 285 l 700 288 q 824 232 803 290 q 778 208 814 208 q 618 219 656 208 q 567 281 575 233 q 563 429 561 306 q 411 413 510 425 q 257 107 406 217 l 239 108 q 328 242 306 185 q 354 401 350 299 q 153 375 224 381 q 169 192 164 311 q 185 10 175 67 q 438 47 251 15 q 690 74 596 74 q 763 52 729 74 q 807 -4 797 31 q 871 -39 826 -18 q 954 421 954 218 z "},"i":{"ha":1224,"x_min":-46,"x_max":1224,"o":"m 946 808 q 794 760 932 776 q 615 740 704 750 q 613 633 615 703 q 682 643 626 635 q 753 650 725 650 q 844 621 844 650 q 767 596 844 596 q 574 582 701 596 q 383 568 447 568 q 328 603 340 568 q 560 624 461 607 l 560 740 q 433 725 496 732 q 306 715 357 715 q 243 747 258 715 q 560 790 407 760 l 560 832 q 517 985 560 929 q 597 974 557 985 q 654 932 654 960 q 638 867 654 913 q 619 801 621 822 q 746 821 643 804 q 872 832 822 832 q 946 808 936 832 m 907 475 q 893 453 907 463 q 834 422 861 428 q 797 407 807 415 q 749 332 781 390 q 579 317 597 319 q 411 286 482 307 l 400 289 q 292 464 367 349 l 296 476 l 306 482 q 374 475 357 475 q 579 497 443 475 q 783 518 715 518 q 907 475 867 518 m 1224 124 q 1079 104 1179 107 q 929 104 1111 104 q 478 88 667 104 q 267 54 426 82 q 56 31 136 31 q -46 90 -10 31 q 426 124 151 90 q 347 267 415 185 l 353 279 l 365 285 q 468 131 465 271 l 676 150 q 771 344 724 197 q 865 267 836 315 l 856 254 q 731 158 778 225 q 911 181 788 160 q 1090 200 1026 200 q 1224 124 1199 200 m 950 -56 q 883 -119 940 -79 q 813 -185 825 -158 l 836 -190 l 844 -204 q 660 -250 844 -235 q 426 -262 543 -256 q 390 -318 413 -310 q 346 -171 368 -244 q 286 -28 318 -83 l 306 -11 q 346 -19 319 -11 q 388 -28 372 -28 q 595 1 457 -28 q 801 31 733 31 q 876 -4 818 31 q 950 -56 935 -39 m 767 458 q 765 472 767 465 q 756 475 756 475 q 388 442 599 475 l 429 329 q 718 364 525 338 q 746 411 732 388 q 767 458 767 444 m 781 -62 q 760 -36 781 -36 q 400 -67 622 -36 l 422 -225 q 594 -211 451 -221 q 764 -185 699 -204 q 775 -125 764 -182 q 781 -62 781 -87 z "},"j":{"ha":1222,"x_min":-44,"x_max":1222,"o":"m 1222 -224 q 1079 -253 1181 -228 q 939 -276 988 -276 q 785 -179 913 -276 q 625 -56 704 -117 q 232 -210 403 -221 l 156 -206 q 579 -19 367 -200 q 475 47 501 32 q 364 101 415 83 q 179 -61 256 -7 q -44 -162 67 -140 q 221 28 138 -46 q 389 289 378 167 l 347 285 q 329 346 329 303 q 332 393 329 363 q 335 433 335 424 q 331 556 335 522 q 289 667 322 625 q 333 667 306 669 q 376 664 367 664 q 433 669 376 664 q 476 808 447 696 q 349 783 436 806 q 219 761 267 761 q 149 778 188 761 q 89 819 104 794 q 506 882 225 846 q 915 921 811 921 q 1050 874 992 921 q 806 836 1033 856 q 525 815 665 826 l 568 781 q 483 688 538 751 q 610 711 519 690 q 736 731 689 731 q 806 704 764 731 q 864 657 840 682 q 818 476 840 594 q 776 296 794 349 l 749 275 l 713 336 q 431 293 633 318 l 485 243 l 440 182 q 572 218 471 188 q 704 243 656 243 q 821 190 775 243 q 649 -15 764 121 q 1222 -214 947 -169 l 1222 -224 m 747 499 q 747 664 747 686 l 731 681 q 376 631 613 665 l 376 540 q 501 574 407 544 q 626 599 582 599 q 660 568 660 599 q 638 553 660 560 q 376 518 572 533 l 376 436 q 497 450 449 442 q 565 468 508 451 q 635 479 607 479 q 678 463 678 479 l 674 454 q 565 425 671 449 q 442 401 460 401 q 408 408 428 401 q 376 419 378 418 l 376 317 q 510 340 407 321 q 644 357 593 357 q 678 354 656 357 q 711 351 700 351 q 747 499 747 351 m 706 169 q 689 194 704 194 q 596 169 657 194 q 503 144 535 144 q 424 169 486 144 q 381 115 408 153 q 603 18 453 106 q 664 89 628 40 q 704 169 704 144 l 706 169 z "},"k":{"ha":1210,"x_min":-6,"x_max":1210,"o":"m 1210 -107 q 1082 -190 1182 -162 q 924 -212 1007 -212 q 703 -169 779 -212 q 606 21 606 -114 q 615 122 606 54 q 625 224 625 190 q 611 357 625 283 l 469 332 q 513 275 513 296 q 319 1 513 172 q 17 -169 126 -169 l -6 -167 q 273 31 156 -97 q 438 324 390 160 q 307 292 372 307 q 175 272 229 272 q 124 285 175 272 l 99 317 q 546 394 293 344 q 561 579 560 492 q 422 556 489 556 q 354 561 388 556 q 224 424 293 469 l 204 426 q 310 585 281 503 q 342 772 332 649 q 449 731 424 764 q 364 583 438 697 q 561 626 429 597 l 563 732 q 522 985 564 911 q 660 921 621 985 q 617 646 642 829 q 807 708 663 656 l 872 678 q 760 617 853 638 q 622 592 690 604 l 617 410 q 763 436 643 413 q 910 454 850 454 q 1019 424 994 454 l 996 401 q 813 382 943 392 q 631 357 694 375 q 672 317 632 354 q 703 275 703 286 q 686 174 703 240 q 669 74 669 108 q 710 -97 669 -54 q 878 -139 750 -139 q 1081 -83 1029 -139 q 1156 115 1119 -42 q 1179 3 1161 71 q 1210 -107 1206 -93 z "},"l":{"ha":1047,"x_min":22,"x_max":1047,"o":"m 1047 254 q 1038 203 1047 229 q 1006 169 1026 169 q 978 201 1003 169 q 763 499 908 301 q 940 411 838 493 q 1047 254 1047 324 m 583 772 q 573 738 583 764 q 563 708 563 711 l 563 -56 q 540 -135 563 -85 q 489 -192 514 -192 q 392 -92 479 -192 q 285 31 293 24 q 431 -14 382 -14 l 458 -11 q 485 301 485 31 q 490 428 485 335 q 494 575 494 522 q 425 857 494 788 q 519 832 467 854 q 583 772 583 806 m 194 411 q 167 214 194 304 q 46 85 126 85 q 22 165 22 85 q 63 272 22 208 q 129 372 96 322 q 172 479 149 404 l 190 479 q 194 411 194 444 z "},"m":{"ha":1210,"x_min":-40,"x_max":1210,"o":"m 1210 182 q 1182 147 1210 147 q 1088 231 1160 147 q 997 339 1043 285 q 1136 297 1074 335 q 1210 182 1210 251 m 1042 561 q 1018 522 1038 543 q 989 486 993 493 q 936 267 949 419 q 904 18 921 75 q 767 -181 869 -117 q 621 18 721 -112 q 693 -17 657 0 q 767 -39 742 -39 q 786 -32 767 -39 q 869 238 826 19 q 907 529 907 433 q 897 561 907 529 l 869 565 q 806 554 846 565 q 742 536 751 538 q 482 -6 710 210 q 290 -128 347 -133 q 554 156 451 -28 q 671 526 649 325 q 565 508 585 508 q 481 561 532 508 q 681 583 600 561 q 697 811 697 806 q 678 921 697 876 q 761 889 715 913 q 831 836 813 863 q 754 596 769 751 q 828 613 771 599 q 901 624 874 624 q 974 603 931 624 q 1040 561 1018 583 l 1042 561 m 493 388 q 414 147 493 147 q 388 158 400 147 q 375 182 375 168 q 397 228 375 194 q 465 392 446 304 q 493 388 492 388 m 471 540 q 389 493 471 508 q 279 479 385 492 q 281 328 279 429 q 283 178 283 228 q 211 -214 283 -194 q 181 -85 181 -183 q 189 -7 181 -53 q 201 69 194 32 q 221 464 215 179 q 151 454 204 463 q 81 446 108 446 q -40 482 15 446 q 219 529 108 493 l 224 656 q 185 900 226 788 q 324 815 282 889 q 296 678 310 747 q 279 540 279 596 q 397 564 386 564 q 469 540 454 564 l 471 540 z "},"n":{"ha":1190,"x_min":-32,"x_max":1190,"o":"m 506 867 q 474 804 506 804 q 433 833 458 804 q 397 874 415 853 q 347 921 381 889 q 490 889 454 921 q 506 867 506 875 m 1190 499 q 1072 467 1171 476 q 938 458 1004 463 q 967 435 965 436 q 990 406 983 421 q 967 190 967 340 q 969 65 967 144 q 972 -40 972 -14 q 917 -297 972 -258 l 901 -282 q 890 -87 890 -196 q 895 97 890 -26 q 900 281 900 219 q 892 454 900 397 l 768 446 q 693 139 751 281 q 492 -67 613 -58 q 651 172 597 24 q 700 458 700 304 q 663 699 700 588 q 826 738 744 718 q 944 861 893 764 q 1053 772 1031 819 q 908 714 1004 740 q 757 667 788 679 l 775 475 q 935 513 819 481 q 1094 540 1036 540 q 1190 499 1190 540 m 347 553 q 335 520 347 542 q 313 499 322 499 q 273 544 301 499 q 242 603 244 589 q 258 608 251 608 q 329 574 292 608 q 347 553 347 557 m 646 501 q 378 446 592 485 q 424 332 424 432 q 561 351 525 351 q 594 344 561 351 l 607 332 q 515 310 572 318 q 424 293 442 297 l 419 211 q 508 199 464 204 q 568 147 568 183 q 536 106 568 106 q 481 142 524 106 q 424 188 429 185 l 426 89 q 367 -107 432 -85 q 301 -44 346 -97 q 242 31 272 -7 q 326 21 292 21 q 358 26 326 21 q 374 131 374 65 q 367 282 374 158 q 257 251 342 278 q 146 231 189 231 q 56 278 111 231 q 211 303 110 293 q 367 324 321 313 q 347 442 367 410 q 188 397 328 438 q 51 360 58 360 q 3 388 28 360 q -32 433 -14 411 l 29 432 q 219 451 110 429 q 407 493 313 472 q 474 699 465 624 q 368 674 451 694 q 263 657 303 657 q 168 699 181 657 q 363 740 222 704 q 558 772 488 772 q 596 764 558 772 l 610 744 q 488 703 600 724 q 506 667 490 689 q 526 633 522 646 q 482 567 517 613 q 442 499 450 526 q 568 518 557 518 q 646 501 614 518 m 214 133 q 178 32 214 103 q 115 -44 140 -43 q 93 21 93 -31 q 129 111 93 42 q 178 204 153 157 q 214 133 214 165 z "},"o":{"ha":1251,"x_min":-36,"x_max":1251,"o":"m 1021 740 q 958 706 1021 718 q 876 693 917 699 q 801 671 839 682 q 725 657 750 657 q 672 670 704 657 q 629 699 640 683 q 789 746 708 722 q 947 775 890 775 q 1021 740 1021 775 m 493 847 q 324 672 482 797 q 115 550 165 547 q 254 674 179 599 q 364 815 346 765 q 393 908 372 847 q 445 886 413 907 q 492 847 478 865 l 493 847 m 1251 499 q 1210 471 1251 475 q 1150 469 1206 469 q 850 433 975 469 q 888 411 869 422 q 914 382 914 393 l 914 -117 q 878 -201 914 -151 q 808 -256 842 -251 q 736 -165 790 -240 q 660 -62 675 -79 q 740 -89 700 -76 q 822 -103 788 -103 l 842 -89 l 842 289 q 817 429 842 360 q 682 401 783 425 q 546 382 597 382 q 457 424 486 382 q 779 493 510 431 q 1103 540 978 540 q 1251 499 1251 540 m 468 557 q 393 461 449 517 q 313 369 331 396 q 360 296 349 349 q 365 204 365 268 q 300 -169 365 -169 q 276 -56 276 -169 q 286 151 276 14 q 296 357 296 289 q 144 224 222 285 q -25 136 29 136 l -36 138 q 207 353 115 251 q 386 624 321 476 q 467 557 432 604 l 468 557 z "},"p":{"ha":1092,"x_min":6,"x_max":1092,"o":"m 543 772 q 521 692 543 692 q 508 700 514 692 q 431 889 478 778 q 510 853 476 889 q 543 772 543 818 m 1092 529 l 1082 518 q 835 446 999 497 q 908 575 908 528 q 901 586 908 575 q 888 592 888 592 q 558 550 776 592 q 229 508 340 508 q 139 526 207 508 l 142 482 q 113 385 144 438 q 40 317 82 333 q 6 376 6 331 q 53 478 6 385 q 104 621 100 572 l 111 624 q 146 550 114 550 q 406 575 254 550 q 663 621 535 597 q 701 758 682 689 q 724 899 724 839 q 704 963 724 936 q 842 900 815 963 q 763 764 825 861 q 694 624 710 679 q 919 664 750 628 q 1017 606 960 649 q 1092 529 1074 563 m 335 724 q 300 653 335 653 q 290 660 294 653 q 276 700 285 668 q 219 857 260 768 q 304 816 274 854 q 335 724 335 778 m 1032 176 q 938 143 1032 143 q 856 147 906 143 q 801 151 806 151 q 603 143 735 151 q 631 -47 631 -21 q 604 -214 631 -133 q 504 -339 568 -317 q 428 -268 472 -319 q 357 -192 374 -207 q 501 -215 404 -200 l 525 -201 q 556 -24 556 -128 q 543 143 556 44 q 340 93 528 140 q 135 61 217 61 q 8 124 49 61 l 92 122 q 315 140 183 119 q 536 176 425 158 q 468 282 504 239 q 518 278 518 278 q 588 326 557 278 q 619 410 613 367 l 603 424 q 357 347 572 422 q 279 410 299 364 q 458 446 333 414 q 638 475 571 475 q 733 392 706 475 l 722 368 q 547 264 661 338 l 600 188 q 747 210 636 192 q 896 224 839 224 q 1032 176 989 224 z "},"q":{"ha":1154,"x_min":-18,"x_max":1154,"o":"m 647 861 q 619 804 647 804 q 600 811 608 804 q 547 882 582 838 q 488 943 528 906 q 647 861 647 943 m 1090 699 q 1025 664 1078 672 q 946 657 986 661 q 901 642 928 654 q 858 624 865 625 q 932 728 882 658 l 926 736 q 914 740 914 740 q 594 721 786 740 q 278 688 436 704 q 225 586 251 636 q 154 511 182 511 q 133 536 142 511 q 126 571 126 554 q 171 665 126 590 q 225 790 219 746 l 239 786 l 278 719 q 613 774 325 725 q 950 808 818 808 q 1031 768 982 808 q 1090 699 1074 731 m 836 546 q 710 300 836 540 q 583 303 668 303 q 490 299 547 303 q 397 293 413 293 q 361 417 386 335 q 299 561 336 463 q 331 583 310 583 q 389 568 357 583 q 551 600 426 572 q 714 624 654 624 q 784 593 732 624 q 836 546 836 563 m 1154 165 l 1142 153 q 1121 147 1121 147 q 1031 157 1090 147 q 940 167 971 167 q 725 150 847 167 q 647 -15 718 128 q 836 -85 742 -50 q 968 -225 943 -135 l 964 -232 q 797 -158 925 -232 q 615 -62 653 -75 q 278 -192 482 -192 q 194 -181 221 -192 q 558 -36 465 -136 q 453 1 506 -18 q 363 54 379 29 q 411 133 379 79 q 244 104 376 129 q 78 85 143 85 q -18 138 7 85 q 208 147 94 142 q 433 172 338 156 q 475 289 468 239 q 521 243 521 285 q 499 179 521 224 l 661 190 l 679 243 q 738 200 738 233 q 871 215 782 200 q 1006 231 960 231 q 1154 165 1132 231 m 721 557 q 696 575 721 575 q 586 563 696 575 q 393 550 497 553 l 411 446 q 504 464 425 447 q 597 475 560 475 q 647 463 647 475 q 415 419 647 419 q 424 376 421 406 q 433 332 426 346 q 679 347 581 336 q 721 557 721 488 m 650 147 l 479 142 q 418 60 447 83 l 426 46 q 583 0 479 31 q 650 147 625 58 z "},"r":{"ha":1185,"x_min":-31,"x_max":1185,"o":"m 843 781 q 828 746 843 761 q 794 731 814 731 q 732 799 789 731 q 663 882 668 876 q 804 851 768 882 q 843 781 843 817 m 1181 603 q 1081 554 1157 582 q 969 508 993 522 q 1001 633 1001 581 q 994 651 1001 633 q 976 657 976 657 q 753 625 890 657 q 531 575 642 600 q 519 472 524 492 q 464 401 503 403 q 432 464 432 426 q 468 548 432 478 q 508 650 504 618 l 526 646 l 526 603 q 782 664 564 610 q 1021 708 960 708 q 1108 669 1054 708 q 1181 603 1158 635 m 379 708 q 367 674 379 690 q 338 657 356 657 q 297 693 328 657 q 178 793 265 729 q 331 764 285 793 q 378 708 378 735 l 379 708 m 1185 -125 l 1169 -140 q 1143 -144 1143 -144 q 1025 -127 1103 -144 q 907 -110 947 -110 q 674 -140 828 -110 q 442 -169 521 -169 q 346 -128 382 -169 q 582 -100 497 -117 q 579 433 582 -64 q 632 424 633 424 q 738 449 668 424 q 842 475 807 475 q 913 450 869 475 q 971 401 957 425 q 931 342 956 383 q 922 -62 924 321 q 1005 -59 950 -62 q 1088 -56 1060 -56 q 1151 -72 1121 -56 q 1185 -125 1185 -93 m 442 142 q 307 -17 418 118 q 190 -149 206 -140 q 153 -100 171 -132 q 136 -44 136 -68 l 189 3 q 221 388 201 131 l 207 406 q 135 360 136 360 q 51 339 94 339 q -31 382 -3 339 q 63 404 15 393 q 151 436 117 418 q 236 489 179 456 l 263 499 q 338 464 314 499 q 303 403 332 446 q 274 344 275 361 q 258 31 258 199 q 440 158 346 79 l 440 142 l 442 142 m 857 325 q 832 424 857 424 q 735 411 796 424 q 638 394 665 397 q 654 349 654 368 q 638 235 654 325 q 700 261 653 238 q 747 285 747 285 q 824 254 806 285 q 804 236 817 243 q 635 196 731 219 l 635 88 q 697 101 656 89 q 761 113 739 113 q 806 85 806 113 q 638 54 806 54 l 638 -89 q 849 -67 708 -85 q 857 325 857 50 z "},"s":{"ha":1229,"x_min":-49,"x_max":1229,"o":"m 724 826 q 606 738 713 811 q 469 646 538 692 l 469 336 q 564 403 517 369 q 657 454 638 454 q 418 169 532 322 q 374 275 378 218 l 401 300 q 411 429 411 360 q 403 538 411 511 q 360 633 381 586 q 438 657 386 639 q 533 758 492 688 q 571 889 575 828 q 724 826 694 886 m 256 719 q 224 657 256 657 q 146 733 217 657 q 79 793 133 746 l 85 793 q 254 719 254 793 l 256 719 m 1229 -56 q 1050 -142 1139 -99 q 861 -192 935 -192 q 531 -85 765 -192 q 194 21 297 21 q 103 -4 156 21 q 17 -44 60 -24 q -37 18 -17 -22 q 104 75 4 75 q 171 69 135 75 q 142 173 168 104 q 117 275 117 242 q 141 335 117 276 q 168 406 165 394 l 150 426 q 82 403 138 424 q 26 382 26 382 q -49 413 -15 382 q 53 453 -8 424 q 151 499 125 488 q 258 429 228 471 q 217 354 250 400 q 174 285 183 308 q 203 175 188 229 q 219 61 219 110 q 697 -56 350 40 q 706 332 706 351 q 656 646 706 539 q 757 642 708 653 q 932 731 814 674 q 1050 664 1007 715 q 985 435 1025 553 q 881 254 924 254 q 775 406 849 308 l 890 392 q 931 490 915 415 q 942 601 942 550 q 924 657 942 601 q 761 615 868 647 l 761 72 q 722 -62 761 -36 q 858 -74 794 -74 q 1044 -65 921 -74 q 1229 -56 1168 -56 z "},"t":{"ha":1013,"x_min":35,"x_max":1013,"o":"m 1013 522 q 983 474 1013 511 q 950 417 954 436 q 929 204 942 381 q 894 -53 918 35 q 783 -214 858 -185 l 768 -200 q 711 -11 750 -136 q 213 -56 594 -11 q 190 -149 214 -126 q 107 165 156 -132 q 35 540 51 499 q 57 544 57 544 q 118 528 78 544 q 157 511 158 511 q 435 546 257 511 l 435 653 q 372 936 436 835 q 551 867 506 924 q 508 557 508 651 q 678 594 546 563 q 850 621 783 621 q 944 586 882 621 q 1013 522 1013 549 m 851 526 l 825 550 q 514 518 760 550 l 508 303 q 574 317 531 303 q 642 332 618 332 q 678 322 660 332 q 696 296 696 313 q 614 257 696 269 q 508 247 599 254 l 508 31 q 635 54 551 35 q 740 0 714 38 q 793 -11 774 -8 q 846 254 836 101 q 850 526 850 313 l 851 526 m 457 18 q 439 240 424 65 l 338 228 q 296 240 318 226 q 263 271 274 254 q 443 289 322 272 q 436 508 443 361 q 160 479 342 488 q 186 235 172 399 q 213 -11 200 71 l 457 18 z "},"u":{"ha":1242,"x_min":-51,"x_max":1242,"o":"m 1242 -139 q 889 -178 1119 -178 q 781 -82 872 -178 q 668 38 724 -22 q 240 -139 511 -139 q 631 81 465 -82 q 526 186 560 154 q 408 275 465 242 l 503 275 q 658 124 546 226 q 731 351 721 263 l 711 369 q 568 357 660 369 q 426 342 468 343 q -35 -75 282 64 l -51 -72 q 268 219 144 54 q 472 603 378 367 q 324 583 332 583 q 196 633 239 583 l 268 632 q 489 657 319 631 q 506 794 506 719 q 492 953 506 858 q 650 889 610 951 q 603 783 617 817 q 567 674 578 724 q 710 713 600 679 q 854 740 797 740 q 971 708 933 740 q 774 647 925 669 q 556 624 664 635 q 450 382 535 567 q 607 426 496 386 q 756 464 710 464 q 817 451 783 464 q 863 413 853 435 q 693 74 781 197 q 954 -62 794 -10 q 1242 -139 1022 -86 z "},"v":{"ha":1107,"x_min":0,"x_max":1107,"o":"m 1107 464 l 1096 458 q 989 468 1083 458 q 882 475 925 475 q 600 454 751 475 q 614 74 614 306 q 494 -276 614 -226 q 400 -181 453 -246 q 315 -75 332 -92 q 397 -104 356 -89 q 478 -122 453 -122 q 540 118 540 -122 l 540 275 q 536 447 540 368 q 328 394 497 440 q 115 360 199 360 q 0 424 33 360 q 267 453 104 428 q 533 493 496 489 q 485 744 533 628 q 426 731 468 742 q 368 719 390 719 q 251 775 304 719 q 489 822 311 782 q 728 857 639 857 q 788 840 753 857 q 828 801 822 824 q 694 763 807 774 q 540 751 618 757 q 603 572 603 693 q 600 508 603 546 q 774 543 688 526 q 949 561 875 561 q 1049 540 1003 561 q 1107 464 1107 513 z "},"w":{"ha":1244,"x_min":-54,"x_max":1244,"o":"m 1244 475 q 1122 444 1194 444 q 1001 454 1119 444 q 643 826 867 581 q 488 561 560 658 q 274 339 404 447 l 251 339 q 476 632 418 533 q 582 985 571 796 q 650 968 613 985 q 696 921 696 947 q 663 854 696 900 q 1244 475 964 540 m 776 557 q 688 515 776 531 q 575 504 624 504 q 515 526 533 504 q 626 560 539 531 q 740 583 694 583 q 775 557 774 583 l 776 557 m 943 -125 q 919 -210 943 -168 q 854 -265 893 -257 q 726 -117 814 -212 q 853 -149 826 -149 q 875 -144 853 -149 l 875 289 q 810 475 875 382 q 885 464 846 475 q 939 424 939 449 q 933 393 939 413 q 928 364 928 374 l 925 10 q 934 -58 925 -14 q 943 -125 943 -103 m 764 85 q 763 61 764 69 q 717 39 740 39 q 697 61 697 39 q 703 118 697 64 q 704 347 710 197 q 751 328 739 342 q 764 281 764 314 q 760 240 764 267 q 757 200 757 214 q 760 142 757 181 q 764 85 764 104 m 357 615 l 349 593 q 326 583 326 583 q 263 608 293 583 q 207 657 233 632 l 207 -11 q 136 -192 207 -100 q 104 -79 104 -178 q 127 170 104 4 q 150 418 150 336 l 151 822 q 115 921 151 876 q 235 851 235 921 q 222 765 235 822 q 210 678 210 707 q 293 663 251 671 q 357 615 346 649 m 633 339 q 610 174 610 264 q 612 99 610 150 q 614 17 614 47 q 561 -192 614 -192 q 511 -131 557 -192 q 456 -57 458 -60 q 507 -71 468 -58 q 558 -82 539 -82 l 558 339 l 413 336 l 413 222 q 459 228 429 224 q 506 232 489 232 q 526 222 517 232 q 413 188 526 188 l 407 94 q 508 118 490 118 q 526 115 508 118 q 408 78 526 78 q 408 -39 408 -40 q 365 -149 401 -149 q 339 -75 339 -149 q 344 -24 339 -56 q 354 26 353 15 q 367 365 367 151 q 419 360 432 360 q 485 374 443 360 q 551 388 528 388 q 599 373 572 388 q 633 339 626 358 m 64 464 q 39 347 63 429 q -11 254 13 254 q -44 282 -32 254 q -54 329 -54 304 q -42 361 -54 338 q -25 394 -26 393 q 10 561 3 467 q 43 517 26 539 q 63 464 63 489 l 64 464 z "},"x":{"ha":1007,"x_min":89,"x_max":1007,"o":"m 1007 836 q 969 786 1007 815 l 965 772 l 965 460 q 981 250 965 389 q 996 42 996 111 q 978 -121 996 -43 q 901 -256 953 -226 q 858 -159 879 -226 q 817 -62 836 -92 q 585 -74 775 -62 q 304 -86 394 -86 q 174 -75 208 -86 q 131 -169 174 -149 q 106 -39 106 -140 q 118 76 106 0 q 131 190 131 151 l 131 708 q 89 857 131 765 l 110 860 q 157 848 126 860 q 197 836 188 836 q 517 878 306 836 q 838 921 729 921 q 938 899 879 921 q 1007 836 1007 871 m 901 531 q 849 867 901 867 q 515 838 718 867 q 183 793 243 799 q 186 511 183 707 q 189 228 189 328 q 181 -56 188 71 q 475 -26 265 -51 q 771 -4 663 -4 q 833 -32 800 -4 q 890 -75 879 -69 q 901 94 901 -19 l 901 531 m 732 740 q 717 710 732 729 q 663 606 689 678 q 649 599 657 603 q 631 602 643 599 q 613 606 618 606 q 519 597 576 606 q 426 583 472 590 q 413 557 422 567 q 356 633 389 560 q 310 733 332 683 q 517 756 404 733 q 581 772 522 757 q 644 785 622 785 q 697 772 668 785 q 732 740 732 758 m 753 508 q 744 476 753 497 q 735 442 735 454 l 735 190 q 676 246 676 190 q 678 282 676 257 q 681 319 681 307 l 681 360 q 678 472 681 410 q 564 486 610 486 q 378 454 528 486 q 374 190 379 367 q 342 147 371 158 q 317 161 317 153 l 317 493 q 350 488 328 493 q 385 482 372 482 q 526 511 433 482 q 669 540 619 540 q 715 530 686 540 q 753 508 743 519 m 750 69 q 740 51 750 61 q 722 42 731 42 q 686 60 707 42 q 553 179 644 101 q 671 147 601 179 q 750 69 750 111 m 583 392 q 485 144 583 281 q 274 0 381 -1 l 257 0 q 433 147 363 53 q 511 360 511 250 q 489 413 511 358 l 496 422 q 511 426 511 426 q 554 418 531 426 q 583 392 583 408 m 636 715 q 619 733 636 733 q 507 722 574 733 q 394 703 451 713 q 424 611 411 667 q 617 639 488 621 q 629 676 618 647 q 636 715 636 700 z "},"y":{"ha":853,"x_min":0,"x_max":853,"o":"m 853 839 l 808 768 l 808 88 q 819 7 808 60 q 829 -72 829 -46 q 811 -151 829 -108 q 763 -214 790 -200 q 664 -118 735 -200 q 551 -8 588 -32 l 549 0 q 713 -36 657 -36 q 733 -29 713 -36 l 739 -15 l 739 607 q 685 847 739 811 q 538 821 633 842 q 390 793 438 800 l 390 561 q 493 585 421 564 q 597 603 558 603 q 639 588 597 603 l 654 564 q 531 536 642 553 q 390 518 460 528 l 375 329 q 482 351 407 332 q 590 369 550 369 q 635 361 590 369 l 657 342 q 368 285 622 299 q 250 -29 339 115 q 0 -229 140 -210 q 263 150 190 -89 q 315 617 315 326 q 267 854 315 792 q 283 860 283 860 q 338 848 303 860 q 393 836 374 836 q 551 878 449 836 q 706 921 654 921 q 788 893 738 921 q 853 839 838 865 z "},"z":{"ha":1192,"x_min":-33,"x_max":1193,"o":"m 1192 -44 l 1169 -54 q 1093 -46 1119 -46 q 779 -81 988 -46 q 464 -117 571 -117 q 378 -85 464 -117 l 381 -167 q 338 -294 385 -276 l 315 -269 l 294 -181 q 315 -139 315 -139 l 315 219 q 149 60 232 139 q -26 -57 18 -57 l -33 -57 q 315 303 157 79 l 315 388 l 364 369 q 422 481 393 425 q 471 596 454 546 q 408 580 451 594 q 342 565 365 565 q 231 603 297 565 q 494 653 392 626 q 549 900 549 814 q 525 985 549 940 q 664 932 643 979 q 618 799 653 883 q 568 667 579 710 q 753 717 615 674 q 938 751 868 751 q 1038 692 1015 751 q 549 606 840 665 q 472 453 499 500 q 378 310 426 368 q 378 -75 393 197 q 546 -60 500 -65 q 711 -28 640 -47 q 728 211 719 51 q 588 189 599 189 q 483 222 550 189 q 729 267 597 233 l 732 381 q 726 469 735 442 q 674 540 715 510 q 760 524 721 540 q 811 464 811 504 q 801 374 811 433 q 790 285 790 314 q 868 313 799 286 q 947 329 915 329 q 1044 307 1006 329 q 932 250 1040 276 q 790 222 917 246 l 790 -15 q 917 10 831 -12 q 1043 31 997 31 q 1192 -44 1193 31 z "},"{":{"ha":1278,"x_min":72,"x_max":1278,"o":"m 1015 821 q 996 781 1015 781 q 914 843 986 781 q 825 921 869 882 q 947 906 910 918 q 1015 821 1015 883 m 822 486 q 809 458 822 471 q 781 446 796 446 q 743 504 760 446 q 728 583 729 550 q 822 486 822 508 m 1278 700 l 1265 688 l 1011 650 q 1047 597 1047 632 q 1008 522 1047 564 q 949 454 956 465 q 1033 474 957 456 q 1118 486 1083 486 q 1187 467 1150 486 q 1243 424 1224 449 q 1215 328 1229 376 q 1200 231 1200 281 q 1212 115 1200 192 q 1224 0 1224 39 q 1139 -256 1224 -228 q 1074 -169 1114 -229 q 1008 -82 1035 -108 q 1107 -119 1076 -119 l 1118 -117 l 1136 -94 l 1139 -56 l 1139 424 l 1107 442 l 886 413 q 928 369 901 400 q 910 278 921 339 q 969 294 925 281 q 1029 307 1006 307 q 1075 285 1060 307 q 996 249 1068 260 q 899 240 947 244 l 864 124 q 926 140 883 125 q 974 154 969 154 q 1017 139 993 154 q 1046 106 1040 124 q 985 24 1042 94 l 1008 10 l 1011 3 l 1004 -12 l 811 -56 l 790 -85 q 749 115 779 -67 l 801 113 q 836 119 801 113 l 853 231 q 772 208 790 208 q 706 243 740 208 q 853 264 756 249 q 861 331 861 290 q 853 401 861 378 q 764 386 817 401 q 678 360 721 374 q 663 -60 663 54 q 614 -192 663 -168 q 594 -96 594 -161 q 604 -13 594 -68 q 614 69 614 42 l 614 347 q 597 394 614 347 q 638 394 613 397 q 678 392 669 392 q 790 414 701 392 q 906 446 868 433 q 981 646 976 551 q 700 606 800 606 q 621 631 656 606 q 907 699 671 639 q 1194 744 1085 744 q 1278 700 1254 744 m 590 596 q 528 550 576 572 q 453 518 490 533 l 453 344 q 499 375 475 360 q 549 392 528 393 q 453 310 508 353 l 453 -117 q 427 -171 453 -139 q 379 -214 401 -203 q 314 -119 350 -185 q 253 -21 276 -47 q 371 -67 328 -61 l 390 -44 l 400 278 q 279 158 379 261 q 147 54 206 85 q 72 126 94 76 q 236 225 125 171 q 404 317 360 285 l 404 508 q 258 486 290 486 q 168 508 207 486 q 404 564 238 508 l 404 721 q 347 943 404 847 q 424 931 385 943 q 485 889 471 915 q 453 583 457 757 q 554 604 517 604 q 590 596 554 604 m 969 88 l 958 106 l 807 88 l 811 -11 l 949 14 l 969 88 z "},"|":{"ha":1332,"x_min":19,"x_max":1332,"o":"m 643 785 l 642 785 q 611 719 642 719 q 519 790 599 719 q 419 878 469 835 q 643 785 643 874 m 1332 -19 q 1163 -97 1306 -28 q 1001 -154 1043 -154 q 645 -12 950 -154 q 250 129 340 129 q 182 117 226 129 q 115 106 138 106 q 19 172 40 106 q 174 175 96 174 q 315 190 288 179 q 593 401 360 210 q 832 618 826 592 l 822 633 q 543 536 813 631 q 283 464 339 464 q 168 540 178 464 q 210 534 181 539 q 256 529 239 529 q 492 575 347 529 q 722 663 578 603 q 851 708 836 708 q 941 684 894 708 q 1001 624 988 660 q 950 600 985 610 q 897 583 908 589 q 619 378 799 533 q 332 176 446 228 l 336 158 q 822 25 731 44 q 1332 -19 1036 -19 z "},"}":{"ha":940,"x_min":0,"x_max":940,"o":"m 940 592 l 933 575 q 844 483 888 544 q 774 378 810 431 l 801 364 l 817 338 l 801 317 q 629 300 732 304 q 458 293 543 296 q 471 8 471 156 q 403 -339 471 -293 q 376 -124 376 -308 q 383 117 376 -31 q 392 289 392 283 l 169 264 l 158 211 l 124 188 q 69 385 114 203 q 0 624 22 576 q 63 613 21 622 q 126 603 106 603 q 265 614 183 603 q 403 633 333 624 l 403 685 q 338 963 403 871 q 508 900 451 963 q 475 646 483 833 q 629 675 521 650 q 785 699 728 699 q 871 660 817 699 q 940 592 919 624 m 775 599 l 771 614 l 761 621 q 479 606 668 617 l 464 339 q 590 357 496 340 q 717 369 669 369 q 751 483 733 426 q 774 599 771 554 l 775 599 m 397 592 l 117 571 q 163 303 147 424 q 390 332 239 310 q 397 528 397 418 l 397 592 z "},"~":{"ha":697,"x_min":0,"x_max":697,"o":"m 697 603 q 674 528 693 586 q 657 451 657 482 l 657 -160 q 626 -233 657 -187 q 569 -297 596 -279 q 535 -201 551 -264 q 504 -103 517 -131 l 121 -132 q 85 -232 121 -217 q 44 -124 44 -201 q 49 -59 44 -101 q 53 0 53 -17 l 53 518 q 0 603 53 564 l 40 604 q 117 583 75 606 l 144 588 q 263 881 263 776 q 254 943 263 913 q 413 900 375 943 q 292 756 400 881 q 201 603 210 658 q 371 649 254 607 q 539 688 481 688 q 624 658 569 688 q 697 603 679 628 m 581 119 q 575 181 581 140 q 569 243 569 222 q 573 318 569 250 q 576 433 576 386 q 528 615 576 615 q 321 593 440 615 q 117 550 218 571 l 117 378 q 243 410 151 382 q 369 433 322 433 q 454 399 442 433 q 296 351 438 372 q 117 336 183 336 l 117 138 q 258 175 140 142 q 401 200 344 200 q 451 150 451 200 q 117 101 425 122 l 117 -89 q 285 -67 200 -78 q 454 -56 385 -56 q 524 -107 525 -56 l 553 -119 l 558 -117 q 581 119 581 -39 z "},"‚":{"ha":0,"x_min":0,"x_max":0,"o":""},"ƒ":{"ha":0,"x_min":0,"x_max":0,"o":""},"„":{"ha":0,"x_min":0,"x_max":0,"o":""},"…":{"ha":0,"x_min":0,"x_max":0,"o":""},"†":{"ha":0,"x_min":0,"x_max":0,"o":""},"‡":{"ha":0,"x_min":0,"x_max":0,"o":""},"ˆ":{"ha":0,"x_min":0,"x_max":0,"o":""},"‰":{"ha":0,"x_min":0,"x_max":0,"o":""},"‹":{"ha":0,"x_min":0,"x_max":0,"o":""},"Œ":{"ha":0,"x_min":0,"x_max":0,"o":""},"‘":{"ha":0,"x_min":0,"x_max":0,"o":""},"’":{"ha":0,"x_min":0,"x_max":0,"o":""},"“":{"ha":0,"x_min":0,"x_max":0,"o":""},"”":{"ha":0,"x_min":0,"x_max":0,"o":""},"•":{"ha":0,"x_min":0,"x_max":0,"o":""},"–":{"ha":0,"x_min":0,"x_max":0,"o":""},"—":{"ha":0,"x_min":0,"x_max":0,"o":""},"˜":{"ha":0,"x_min":0,"x_max":0,"o":""},"™":{"ha":0,"x_min":0,"x_max":0,"o":""},"›":{"ha":0,"x_min":0,"x_max":0,"o":""},"œ":{"ha":0,"x_min":0,"x_max":0,"o":""},"Ÿ":{"ha":0,"x_min":0,"x_max":0,"o":""}," ":{"ha":694,"x_min":0,"x_max":0,"o":""},"¡":{"ha":0,"x_min":0,"x_max":0,"o":""},"¢":{"ha":0,"x_min":0,"x_max":0,"o":""},"£":{"ha":0,"x_min":0,"x_max":0,"o":""},"¤":{"ha":0,"x_min":0,"x_max":0,"o":""},"¥":{"ha":0,"x_min":0,"x_max":0,"o":""},"§":{"ha":0,"x_min":0,"x_max":0,"o":""},"¨":{"ha":0,"x_min":0,"x_max":0,"o":""},"©":{"ha":0,"x_min":0,"x_max":0,"o":""},"ª":{"ha":0,"x_min":0,"x_max":0,"o":""},"«":{"ha":0,"x_min":0,"x_max":0,"o":""},"¬":{"ha":1667,"x_min":54,"x_max":1614,"o":"m 1614 -115 l 54 -115 l 54 947 l 1614 947 l 1614 -115 m 1482 354 l 1482 379 q 1429 382 1438 379 q 1408 424 1408 389 l 1408 771 q 1413 858 1408 849 q 1482 879 1422 879 l 1482 904 l 1260 904 l 1260 879 q 1328 863 1318 879 q 1333 785 1333 853 l 1333 426 q 1313 383 1333 392 q 1260 379 1303 379 l 1260 354 l 1482 354 m 1585 38 q 1529 115 1585 93 q 1422 142 1476 128 q 1368 199 1368 157 q 1390 245 1368 228 q 1442 263 1411 263 q 1522 222 1488 263 q 1529 174 1529 194 l 1551 172 q 1561 268 1553 204 q 1450 286 1503 286 q 1307 172 1307 286 q 1363 92 1307 114 q 1467 67 1414 79 q 1522 7 1522 50 q 1497 -46 1522 -26 q 1436 -65 1471 -65 q 1357 -44 1378 -65 q 1336 33 1336 -22 l 1314 33 q 1311 -12 1314 18 q 1308 -60 1308 -43 q 1422 -92 1308 -92 q 1532 -60 1486 -92 q 1585 38 1585 -24 m 1307 256 l 1188 256 q 1194 388 1189 301 q 1278 529 1278 456 q 1194 653 1278 628 q 1042 674 1118 664 q 958 768 958 690 q 999 851 958 821 q 1089 879 1035 879 q 1203 843 1163 879 q 1210 768 1210 828 l 1235 768 q 1247 879 1235 833 q 1093 908 1175 908 q 951 868 1007 908 q 889 739 889 821 q 972 617 889 642 q 1126 593 1049 606 q 1210 499 1210 576 q 1165 410 1210 442 q 1060 379 1119 379 q 986 390 1025 379 q 929 431 939 406 q 928 497 928 435 l 901 497 q 897 376 901 407 q 1044 347 968 347 q 1115 356 1082 347 q 1122 256 1122 300 q 1060 229 1096 240 l 1060 213 l 1122 213 l 1122 -6 q 1211 -92 1122 -92 q 1261 -83 1228 -92 l 1299 -36 l 1288 -21 q 1243 -42 1269 -42 q 1193 -3 1204 -42 q 1188 69 1188 15 l 1188 219 q 1299 218 1292 219 l 1307 256 m 1114 -83 l 1114 -60 q 1054 -43 1063 -60 q 1053 25 1053 -39 l 1053 153 q 924 286 1053 286 q 794 213 851 286 q 789 286 794 274 q 660 256 731 260 l 660 232 q 700 232 699 232 q 725 210 725 228 l 725 -29 q 703 -60 725 -56 q 660 -60 701 -60 l 660 -83 l 860 -83 l 858 -60 q 803 -47 817 -60 q 790 -6 790 -35 q 792 28 790 3 q 793 69 793 53 q 801 183 793 161 q 894 236 819 236 q 985 118 985 236 q 979 -83 985 -31 l 1114 -83 m 944 879 l 944 904 l 779 904 l 779 879 q 849 861 849 879 q 794 646 849 828 q 740 467 768 557 l 579 908 l 560 908 q 390 471 504 763 q 307 844 333 710 q 303 858 301 853 q 371 879 303 879 l 371 904 l 172 904 l 172 879 q 217 870 208 879 q 235 821 225 861 q 278 656 256 738 q 310 492 304 550 q 228 447 278 492 q 164 367 179 401 q 154 254 154 346 q 127 241 146 250 q 99 226 108 232 l 99 213 l 154 218 l 156 6 q 144 -49 156 -39 q 86 -60 132 -60 l 86 -83 l 301 -83 l 301 -60 q 242 -56 250 -60 q 221 -3 221 -47 q 222 108 221 33 q 222 219 222 182 q 321 218 256 221 l 328 253 l 325 256 l 222 256 l 222 306 q 226 390 222 374 q 283 435 238 435 q 324 422 307 435 l 339 347 l 379 347 q 549 779 440 529 q 704 347 606 636 l 746 347 q 821 622 768 438 q 904 874 885 846 q 944 879 914 879 m 676 111 q 626 238 676 190 q 497 286 576 286 q 356 235 413 286 q 299 101 299 185 q 346 -36 299 19 q 474 -92 393 -92 q 619 -35 563 -92 q 676 111 676 22 m 603 78 q 581 -19 603 19 q 499 -65 553 -65 q 401 3 435 -65 q 375 128 375 57 q 400 219 375 182 q 479 263 429 263 q 578 200 544 263 q 603 78 603 150 z "},"®":{"ha":0,"x_min":0,"x_max":0,"o":""},"¯":{"ha":0,"x_min":0,"x_max":0,"o":""},"°":{"ha":0,"x_min":0,"x_max":0,"o":""},"±":{"ha":0,"x_min":0,"x_max":0,"o":""},"´":{"ha":0,"x_min":0,"x_max":0,"o":""},"µ":{"ha":0,"x_min":0,"x_max":0,"o":""},"¶":{"ha":0,"x_min":0,"x_max":0,"o":""},"·":{"ha":0,"x_min":0,"x_max":0,"o":""},"¸":{"ha":0,"x_min":0,"x_max":0,"o":""},"º":{"ha":0,"x_min":0,"x_max":0,"o":""},"»":{"ha":0,"x_min":0,"x_max":0,"o":""},"¿":{"ha":0,"x_min":0,"x_max":0,"o":""},"À":{"ha":0,"x_min":0,"x_max":0,"o":""},"Á":{"ha":0,"x_min":0,"x_max":0,"o":""},"Â":{"ha":0,"x_min":0,"x_max":0,"o":""},"Ã":{"ha":0,"x_min":0,"x_max":0,"o":""},"Ä":{"ha":0,"x_min":0,"x_max":0,"o":""},"Å":{"ha":0,"x_min":0,"x_max":0,"o":""},"Æ":{"ha":0,"x_min":0,"x_max":0,"o":""},"Ç":{"ha":0,"x_min":0,"x_max":0,"o":""},"È":{"ha":0,"x_min":0,"x_max":0,"o":""},"É":{"ha":0,"x_min":0,"x_max":0,"o":""},"Ê":{"ha":0,"x_min":0,"x_max":0,"o":""},"Ë":{"ha":0,"x_min":0,"x_max":0,"o":""},"Ì":{"ha":0,"x_min":0,"x_max":0,"o":""},"Í":{"ha":0,"x_min":0,"x_max":0,"o":""},"Î":{"ha":0,"x_min":0,"x_max":0,"o":""},"Ï":{"ha":0,"x_min":0,"x_max":0,"o":""},"Ñ":{"ha":0,"x_min":0,"x_max":0,"o":""},"Ò":{"ha":0,"x_min":0,"x_max":0,"o":""},"Ó":{"ha":0,"x_min":0,"x_max":0,"o":""},"Ô":{"ha":0,"x_min":0,"x_max":0,"o":""},"Õ":{"ha":0,"x_min":0,"x_max":0,"o":""},"Ö":{"ha":0,"x_min":0,"x_max":0,"o":""},"Ø":{"ha":0,"x_min":0,"x_max":0,"o":""},"Ù":{"ha":0,"x_min":0,"x_max":0,"o":""},"Ú":{"ha":0,"x_min":0,"x_max":0,"o":""},"Û":{"ha":0,"x_min":0,"x_max":0,"o":""},"Ü":{"ha":0,"x_min":0,"x_max":0,"o":""},"ß":{"ha":0,"x_min":0,"x_max":0,"o":""},"à":{"ha":0,"x_min":0,"x_max":0,"o":""},"á":{"ha":0,"x_min":0,"x_max":0,"o":""},"â":{"ha":0,"x_min":0,"x_max":0,"o":""},"ã":{"ha":0,"x_min":0,"x_max":0,"o":""},"ä":{"ha":0,"x_min":0,"x_max":0,"o":""},"å":{"ha":0,"x_min":0,"x_max":0,"o":""},"æ":{"ha":0,"x_min":0,"x_max":0,"o":""},"ç":{"ha":0,"x_min":0,"x_max":0,"o":""},"è":{"ha":0,"x_min":0,"x_max":0,"o":""},"é":{"ha":0,"x_min":0,"x_max":0,"o":""},"ê":{"ha":0,"x_min":0,"x_max":0,"o":""},"ë":{"ha":0,"x_min":0,"x_max":0,"o":""},"ì":{"ha":0,"x_min":0,"x_max":0,"o":""},"í":{"ha":0,"x_min":0,"x_max":0,"o":""},"î":{"ha":0,"x_min":0,"x_max":0,"o":""},"ï":{"ha":0,"x_min":0,"x_max":0,"o":""},"ñ":{"ha":0,"x_min":0,"x_max":0,"o":""},"ò":{"ha":0,"x_min":0,"x_max":0,"o":""},"ó":{"ha":0,"x_min":0,"x_max":0,"o":""},"ô":{"ha":0,"x_min":0,"x_max":0,"o":""},"õ":{"ha":0,"x_min":0,"x_max":0,"o":""},"ö":{"ha":0,"x_min":0,"x_max":0,"o":""},"÷":{"ha":0,"x_min":0,"x_max":0,"o":""},"ø":{"ha":0,"x_min":0,"x_max":0,"o":""},"ù":{"ha":0,"x_min":0,"x_max":0,"o":""},"ú":{"ha":0,"x_min":0,"x_max":0,"o":""},"û":{"ha":0,"x_min":0,"x_max":0,"o":""},"ü":{"ha":0,"x_min":0,"x_max":0,"o":""},"ÿ":{"ha":0,"x_min":0,"x_max":0,"o":""},"⁄":{"ha":0,"x_min":0,"x_max":0,"o":""},"":{"ha":0,"x_min":0,"x_max":0,"o":""},"":{"ha":694,"x_min":0,"x_max":0,"o":""},"Š":{"ha":0,"x_min":0,"x_max":0,"o":""},"š":{"ha":0,"x_min":0,"x_max":0,"o":""},"¦":{"ha":0,"x_min":0,"x_max":0,"o":""},"­":{"ha":0,"x_min":0,"x_max":0,"o":""},"²":{"ha":0,"x_min":0,"x_max":0,"o":""},"³":{"ha":0,"x_min":0,"x_max":0,"o":""},"¹":{"ha":0,"x_min":0,"x_max":0,"o":""},"¼":{"ha":0,"x_min":0,"x_max":0,"o":""},"½":{"ha":0,"x_min":0,"x_max":0,"o":""},"¾":{"ha":0,"x_min":0,"x_max":0,"o":""},"Ð":{"ha":0,"x_min":0,"x_max":0,"o":""},"×":{"ha":0,"x_min":0,"x_max":0,"o":""},"Ý":{"ha":0,"x_min":0,"x_max":0,"o":""},"Þ":{"ha":0,"x_min":0,"x_max":0,"o":""},"ð":{"ha":0,"x_min":0,"x_max":0,"o":""},"ý":{"ha":0,"x_min":0,"x_max":0,"o":""},"þ":{"ha":0,"x_min":0,"x_max":0,"o":""},"Ł":{"ha":0,"x_min":0,"x_max":0,"o":""},"ł":{"ha":0,"x_min":0,"x_max":0,"o":""},"":{"ha":0,"x_min":0,"x_max":0,"o":""},"":{"ha":0,"x_min":0,"x_max":0,"o":""},"Ž":{"ha":0,"x_min":0,"x_max":0,"o":""},"ž":{"ha":0,"x_min":0,"x_max":0,"o":""}}}
